<?xml version="1.0" encoding="UTF-8"?>
<svg id="Layer_2" data-name="Layer 2" xmlns="http://www.w3.org/2000/svg" viewBox="0 0 342 381.05">
  <defs>
    <style>
      .cls-1 {
        fill: #377bbf;
      }

      .cls-1, .cls-2 {
        stroke-width: 0px;
      }

      .cls-2 {
        fill: #818386;
      }
    </style>
  </defs>
  <g id="Layer_1-2" data-name="Layer 1">
    <g>
      <path class="cls-1" d="m253,237.26v-82.26l-23-18.17v-16.83l-23-17-22,11.36v-59.36l-3,.13v-14.13h-5L171,0l-4,42-5-.49v13.49l-3,.47v28.53l-23-14-22,20.02-1,17.98-22,20s1,70,0,110c-37,2-91,15-91,15,47.84-4.67,88.63-6.89,120-8,39.02-1.38,73.77-2.61,120,0,41.95,2.37,76.88,6.98,102,11-34-12-89-18.74-89-18.74Zm-94.36-2.39h-20.64V78l20.64,12.02v144.85Zm46.36,0h-20v-114.87l20-10v124.87Z"/>
      <polygon class="cls-1" points="146 91 149 93 149 235 146 235 146 91"/>
      <polygon class="cls-1" points="192 122 195 120.49 195 234.87 192 234.87 192 122"/>
      <g>
        <g>
          <path class="cls-1" d="m196.57,309.41h-21.2v-54.62h10.44v47.49h10.75v7.12Z"/>
          <path class="cls-1" d="m210.89,309.41h-10.44v-54.62h10.44v54.62Z"/>
          <path class="cls-1" d="m65,298.78c2.4-.71,4.77,1.68,7.03.3,1.35-.82,1.76-2.43,1.92-3.12.55-2.4-.27-4.93-1.52-7.05-3.77-6.4-9.87-11.59-10.41-19.47-.02-.24-.02-.48-.02-.51-.08-4.07,1.35-7.7,2.5-9.45,4.27-6.51,17.15-6.19,18-3.98.15.38-.57,1.58-2,3.98-.92,1.54-1.39,2.32-1.86,2.53-1.62.71-3.13-.86-4.91-.06-.35.16-.68.43-.99.88-1.67,2.44-.11,6.19,1.18,8.45,1.24,2.16,2.88,4.06,4.43,6.01,2.15,2.71,4.16,5.57,5.51,8.75,1.35,3.18,2.03,6.71,1.45,10.12-.87,5.08-4.6,9.5-9.36,11.54-3.39,1.45-6.5,1.4-7.99,1.34-3.28-.13-5.84-1.05-7.37-1.73,1.02-6.18,2.84-8.06,4.43-8.52Z"/>
          <polygon class="cls-1" points="113 254.95 113 263.59 103.99 263.59 103.99 310 93.54 310 93.54 263.59 85 263.59 85 254.95 113 254.95"/>
          <polygon class="cls-1" points="127 263.96 127 283.98 137 283.98 137 292.99 127 292.99 127 299.99 139 299.99 139 310 116 310 116 292.99 113 292.99 113 283.98 116 283.98 116 254.95 139 254.95 139 263.96 127 263.96"/>
        </g>
        <path class="cls-1" d="m280,305.45c0,.59.28,1.86-.27,2.24-.22.15-.44.3-.66.46-.18.12-.36.24-.57.3-.11.03-.22.04-.33.04-.12.14-.34.29-.69.45-3.95,1.84-9,2.87-13.24,1.41-2.72-.94-5.09-2.65-6.95-4.85-4.98-5.9-6.01-14.08-6.35-21.52-.37-7.9.55-16.54,5.56-22.98,6.86-8.82,17.55-5.16,17.99-5-.09,0-.49.4-.49,8.5,0-.47-5.27.45-5.71.59-3.3,1.05-4.86,2.76-5.71,6.04-1.44,5.52-1.88,11.3-1.2,16.97.58,4.81,1.52,9.89,4.79,13.66l2.83-.16v-11.1c0-3-4-1.84-4-1.84v-10.16s6,0,9,1c1.51.5,2.44,2,3.24,3.27.65,1.03,1.31,2.06,1.82,3.17.26.57.46,1.15.61,1.75.77,3.01.34,6.15.33,9.21-.01,1.9-.01,3.8,0,5.7v2.85Z"/>
        <polygon class="cls-1" points="217 255 217 310 227.49 310 227.49 284.63 240.26 310 246 309.66 246 255 235.15 255 235.5 281.34 222.64 255 217 255"/>
        <path class="cls-1" d="m171,270c-2-14-16.32-15-16.32-15h-10.68v54.91h10.68v-14.12c5.68,4.78,5.32,14.3,5.32,14.3l11-.18c-1-17.08-4-15.91-7-20.91,6-6,7-12,7-19Zm-17,13.53v-19.53s7,2,6.64,9.77c-.36,7.76-6.64,9.76-6.64,9.76Z"/>
      </g>
      <g>
        <path class="cls-2" d="m52.47,369.35v-48.53h3.58v48.53h-3.58Z"/>
        <path class="cls-2" d="m75.93,369.35l-1.68-12.88h-7.8l-1.68,12.88h-3.79l7.37-48.53h4.01l7.37,48.53h-3.79Zm-4.77-37.3c-.11-.89-.21-1.79-.3-2.69-.09-.91-.17-1.75-.24-2.52-.11-.89-.18-1.76-.22-2.6h-.11c-.07.85-.14,1.72-.22,2.6-.07.77-.15,1.61-.24,2.52-.09.91-.19,1.8-.3,2.69l-2.76,21.48h7.15l-2.76-21.48Z"/>
        <path class="cls-2" d="m95.28,368.54c-.87.81-1.92,1.21-3.14,1.21-1.63,0-2.97-.58-4.04-1.73-1.07-1.16-1.91-2.8-2.52-4.94-.61-2.14-1.04-4.73-1.27-7.77-.24-3.04-.35-6.45-.35-10.23s.12-7.18.35-10.23c.23-3.04.66-5.63,1.27-7.77.61-2.14,1.45-3.78,2.52-4.94,1.07-1.16,2.41-1.73,4.04-1.73s2.97.58,4.04,1.73c1.06,1.16,1.9,2.8,2.52,4.94.61,2.14,1.04,4.73,1.27,7.77.23,3.04.35,6.45.35,10.23,0,5.24-.24,9.71-.7,13.43-.47,3.72-1.34,6.54-2.6,8.46-.58.52-1.16,1.04-1.73,1.56Zm1.35-23.57c0-3.23-.05-6.17-.16-8.81-.11-2.64-.33-4.9-.65-6.79-.33-1.89-.79-3.34-1.38-4.36-.6-1.02-1.36-1.53-2.3-1.53s-1.71.51-2.3,1.53c-.6,1.02-1.06,2.48-1.38,4.36-.33,1.89-.54,4.15-.65,6.79-.11,2.64-.16,5.58-.16,8.81s.05,6.17.16,8.81c.11,2.64.33,4.9.65,6.79.33,1.89.79,3.34,1.38,4.36.6,1.02,1.36,1.53,2.3,1.53s1.71-.51,2.3-1.53c.6-1.02,1.06-2.47,1.38-4.36.33-1.89.54-4.15.65-6.79.11-2.64.16-5.58.16-8.81Z"/>
        <path class="cls-2" d="m130.5,368.2c-.43.42-1.01.79-1.73,1.1-.72.31-1.48.46-2.28.46-1.81,0-3.3-.58-4.47-1.73-1.17-1.16-2.1-2.8-2.79-4.94-.69-2.14-1.16-4.73-1.41-7.77-.25-3.04-.38-6.45-.38-10.23s.13-7.18.38-10.23c.25-3.04.72-5.63,1.41-7.77.69-2.14,1.62-3.78,2.79-4.94,1.17-1.16,2.66-1.73,4.47-1.73.94,0,1.75.17,2.44.52.69.35,1.21.69,1.57,1.04l-.98,2.77c-.29-.23-.65-.47-1.08-.72-.43-.25-.98-.38-1.63-.38-1.16,0-2.1.54-2.85,1.62-.74,1.08-1.31,2.57-1.71,4.48-.4,1.91-.67,4.17-.81,6.79-.15,2.62-.22,5.45-.22,8.49s.07,5.91.22,8.49c.14,2.58.42,4.81.84,6.7.42,1.89.98,3.36,1.71,4.42.72,1.06,1.66,1.59,2.82,1.59.61,0,1.15-.12,1.6-.35.45-.23.82-.46,1.11-.69l.98,3Z"/>
        <path class="cls-2" d="m149.36,351.15c0,2.62-.09,5.06-.27,7.31-.18,2.25-.52,4.22-1.03,5.89-.51,1.67-1.23,3-2.17,3.96-.94.96-2.19,1.44-3.74,1.44s-2.8-.48-3.74-1.44c-.94-.96-1.67-2.28-2.19-3.96-.52-1.68-.87-3.64-1.03-5.89s-.24-4.69-.24-7.31.08-5.05.24-7.31.51-4.22,1.03-5.89c.52-1.68,1.25-2.99,2.19-3.96.94-.96,2.19-1.44,3.74-1.44s2.8.48,3.74,1.44c.94.96,1.66,2.28,2.17,3.96.51,1.67.85,3.64,1.03,5.89.18,2.25.27,4.69.27,7.31Zm-3.47-.09c0-2.15-.04-4.18-.11-6.08-.07-1.9-.24-3.56-.49-4.96-.25-1.4-.62-2.51-1.11-3.32-.49-.81-1.17-1.21-2.03-1.21s-1.54.41-2.03,1.21-.86,1.91-1.11,3.32c-.25,1.4-.42,3.06-.49,4.96-.07,1.9-.11,3.93-.11,6.08s.04,4.18.11,6.08c.07,1.9.23,3.56.49,4.96.25,1.4.62,2.51,1.11,3.32s1.17,1.21,2.03,1.21,1.54-.4,2.03-1.21c.49-.81.86-1.91,1.11-3.32.25-1.4.41-3.06.49-4.96.07-1.9.11-3.93.11-6.08Z"/>
        <path class="cls-2" d="m165.13,369.35v-29.58c0-.46-.05-.95-.14-1.47-.09-.52-.27-.98-.54-1.39s-.67-.74-1.19-1.01c-.52-.27-1.2-.41-2.03-.41-.65,0-1.19.06-1.63.17-.43.12-.79.23-1.08.35v33.33h-3.41v-35.24c.83-.46,1.78-.84,2.84-1.13,1.07-.29,2.21-.43,3.44-.43,1.59,0,2.85.24,3.79.72.94.48,1.66,1.08,2.17,1.79.51.71.83,1.51.98,2.4.14.89.22,1.73.22,2.54v29.35h-3.41Z"/>
        <path class="cls-2" d="m185.12,360.22c0,1.35-.14,2.59-.43,3.73-.29,1.14-.72,2.14-1.3,3-.58.87-1.3,1.54-2.17,2.02-.87.48-1.88.72-3.03.72-.83,0-1.64-.15-2.44-.46-.8-.31-1.43-.67-1.9-1.1l1.14-2.77c.25.23.63.47,1.14.72.51.25,1.05.38,1.63.38,1.37,0,2.37-.59,2.98-1.76.61-1.17.92-2.65.92-4.42,0-1.39-.18-2.62-.54-3.7-.36-1.08-.82-2.09-1.38-3.03-.56-.94-1.17-1.86-1.82-2.74-.65-.88-1.26-1.83-1.82-2.83-.56-1-1.02-2.1-1.38-3.29-.36-1.19-.54-2.58-.54-4.16,0-2.43.62-4.36,1.87-5.81s2.86-2.17,4.85-2.17c.87,0,1.65.15,2.36.45.7.3,1.27.66,1.71,1.08l-1.03,2.57c-.25-.23-.61-.48-1.06-.75-.45-.27-1.02-.41-1.71-.41-1.12,0-2,.45-2.66,1.36s-.98,2.13-.98,3.67c0,1.35.19,2.54.57,3.58s.85,2.01,1.41,2.92c.56.91,1.17,1.8,1.82,2.69.65.89,1.25,1.84,1.82,2.86.56,1.02,1.03,2.15,1.41,3.38.38,1.23.57,2.66.57,4.28Z"/>
        <path class="cls-2" d="m204.09,368.2c-.79.46-1.72.84-2.76,1.13-1.05.29-2.2.43-3.47.43-1.59,0-2.85-.24-3.77-.72-.92-.48-1.63-1.1-2.14-1.85-.51-.75-.83-1.57-.98-2.46-.15-.88-.22-1.73-.22-2.54v-29.23h3.41v29.35c0,.46.04.95.14,1.47.09.52.27.99.54,1.42s.66.77,1.17,1.04c.51.27,1.17.41,2,.41.65,0,1.19-.07,1.63-.2s.78-.26,1.03-.38v-33.1h3.41v35.24Z"/>
        <path class="cls-2" d="m210.48,369.35v-48.53h3.41v48.53h-3.41Z"/>
        <path class="cls-2" d="m227.88,369.29c-.61.19-1.25.29-1.9.29-.83,0-1.54-.17-2.11-.52-.58-.35-1.06-.83-1.44-1.44-.38-.62-.65-1.33-.81-2.14-.16-.81-.24-1.66-.24-2.54v-27.04h-2.28v-2.95h2.28v-5.72l3.41-1.5v7.22h3.09v2.95h-3.09v27.21c0,.89.14,1.65.41,2.28.27.63.82.95,1.65.95.29,0,.63-.06,1.03-.17v3.12Z"/>
        <path class="cls-2" d="m246.14,368.2c-.54.42-1.29.79-2.25,1.1-.96.31-1.94.46-2.95.46-1.63,0-2.97-.3-4.04-.9-1.07-.6-1.92-1.46-2.55-2.6-.63-1.14-1.08-2.53-1.35-4.19-.27-1.66-.41-3.54-.41-5.66,0-1.81.17-3.55.51-5.23.34-1.68.92-3.2,1.73-4.56.81-1.37,1.87-2.52,3.17-3.47,1.3-.94,2.91-1.61,4.82-1.99v-1.39c0-1.54-.26-2.62-.79-3.24-.52-.62-1.45-.92-2.79-.92-.94,0-1.8.12-2.57.38-.78.25-1.45.53-2.03.84l-1.03-2.71c.72-.42,1.64-.79,2.76-1.1,1.12-.31,2.22-.46,3.31-.46,1.3,0,2.37.17,3.2.49.83.33,1.49.81,1.98,1.44.49.64.82,1.43,1,2.37.18.94.27,2.05.27,3.32v28.02Zm-3.31-24.44c-1.37.35-2.49.93-3.36,1.76-.87.83-1.55,1.81-2.06,2.95-.51,1.14-.86,2.38-1.06,3.73-.2,1.35-.3,2.74-.3,4.16,0,1.62.06,3.07.19,4.36.13,1.29.37,2.39.73,3.29.36.91.84,1.6,1.44,2.08s1.36.72,2.3.72,1.61-.17,2.11-.52v-22.53Z"/>
        <path class="cls-2" d="m262.56,369.35v-29.58c0-.46-.05-.95-.14-1.47-.09-.52-.27-.98-.54-1.39s-.67-.74-1.19-1.01c-.52-.27-1.2-.41-2.03-.41-.65,0-1.19.06-1.63.17-.43.12-.79.23-1.08.35v33.33h-3.41v-35.24c.83-.46,1.78-.84,2.84-1.13,1.07-.29,2.21-.43,3.44-.43,1.59,0,2.85.24,3.79.72.94.48,1.66,1.08,2.17,1.79.51.71.83,1.51.98,2.4.14.89.22,1.73.22,2.54v29.35h-3.41Z"/>
        <path class="cls-2" d="m279.96,369.29c-.61.19-1.25.29-1.9.29-.83,0-1.54-.17-2.11-.52-.58-.35-1.06-.83-1.44-1.44-.38-.62-.65-1.33-.81-2.14-.16-.81-.24-1.66-.24-2.54v-27.04h-2.28v-2.95h2.28v-5.72l3.41-1.5v7.22h3.09v2.95h-3.09v27.21c0,.89.14,1.65.41,2.28.27.63.82.95,1.65.95.29,0,.63-.06,1.03-.17v3.12Z"/>
        <path class="cls-2" d="m295.56,360.22c0,1.35-.14,2.59-.43,3.73-.29,1.14-.72,2.14-1.3,3-.58.87-1.3,1.54-2.17,2.02-.87.48-1.88.72-3.03.72-.83,0-1.64-.15-2.44-.46-.8-.31-1.43-.67-1.9-1.1l1.14-2.77c.25.23.63.47,1.14.72.51.25,1.05.38,1.63.38,1.37,0,2.37-.59,2.98-1.76.61-1.17.92-2.65.92-4.42,0-1.39-.18-2.62-.54-3.7-.36-1.08-.82-2.09-1.38-3.03-.56-.94-1.17-1.86-1.82-2.74-.65-.88-1.26-1.83-1.82-2.83-.56-1-1.02-2.1-1.38-3.29-.36-1.19-.54-2.58-.54-4.16,0-2.43.62-4.36,1.87-5.81s2.86-2.17,4.85-2.17c.87,0,1.65.15,2.36.45.7.3,1.27.66,1.71,1.08l-1.03,2.57c-.25-.23-.61-.48-1.06-.75-.45-.27-1.02-.41-1.71-.41-1.12,0-2,.45-2.66,1.36s-.98,2.13-.98,3.67c0,1.35.19,2.54.57,3.58s.85,2.01,1.41,2.92c.56.91,1.17,1.8,1.82,2.69.65.89,1.25,1.84,1.82,2.86.56,1.02,1.03,2.15,1.41,3.38.38,1.23.57,2.66.57,4.28Z"/>
        <path class="cls-2" d="m90.98,367h3.59c-1.24,4.89.03,8.97,2.43,10,.47.2,1.45.49,3,0v4c-.91.1-2.97.18-5-1-2.73-1.6-3.55-4.43-4-6-.86-3-.4-5.61-.02-7Z"/>
      </g>
    </g>
  </g>
</svg>