<svg width="19" height="21" viewBox="0 0 19 21" fill="none" xmlns="http://www.w3.org/2000/svg">
<path d="M4.2835 18.214C4.7103 16.0892 5.9136 14.677 7.8977 13.9469C6.13771 12.5797 6.56165 10.4491 7.54085 9.5042C8.63567 8.44759 10.36 8.42872 11.4562 9.51146C12.0929 10.1399 12.3812 10.9193 12.3041 11.8177C12.227 12.7045 11.8002 13.4012 11.0823 13.9382C13.092 14.6755 14.2896 16.0921 14.7236 18.2358C14.9734 17.9876 15.2217 17.7699 15.4387 17.5246C17.1816 15.5522 17.8525 13.2473 17.4942 10.6261C17.4571 10.3533 17.5641 10.1689 17.7811 10.137C17.9881 10.1065 18.1436 10.2401 18.1822 10.51C18.5604 13.0979 17.9781 15.4419 16.3851 17.497C15.0248 19.2532 13.2291 20.3055 11.0694 20.7206C10.7497 20.7815 10.5298 20.6277 10.5555 20.3563C10.5769 20.1299 10.7325 20.0515 10.9295 20.0152C11.973 19.828 12.9393 19.4404 13.8429 18.8759C14.0199 18.7655 14.0513 18.648 14.0313 18.4593C13.8172 16.5348 12.2898 14.87 10.4071 14.5144C7.80207 14.0224 5.45969 15.6712 4.99435 18.3272C4.92584 18.7206 4.92441 18.722 5.25557 18.9296C6.12058 19.468 7.05268 19.8251 8.05043 20.0137C8.1475 20.0326 8.25455 20.0645 8.33021 20.1255C8.45867 20.2271 8.48437 20.3766 8.41728 20.529C8.33592 20.7148 8.17747 20.7728 7.99762 20.7278C7.47947 20.5972 6.94705 20.5014 6.45316 20.3055C3.38994 19.0892 1.52147 16.8265 0.852011 13.555C0.650746 12.5695 0.655029 11.571 0.804907 10.5753C0.810616 10.539 0.819181 10.5028 0.826318 10.4665C0.87485 10.2357 1.02616 10.1094 1.22028 10.1385C1.4244 10.1675 1.54002 10.3489 1.51718 10.584C1.47579 11.0137 1.41013 11.4447 1.41298 11.8743C1.42726 14.3635 2.33794 16.4506 4.16217 18.1168C4.19358 18.1458 4.22926 18.1719 4.2835 18.2155V18.214ZM7.39097 11.571C7.39383 12.7495 8.34734 13.7132 9.50782 13.7103C10.6683 13.7074 11.6147 12.7394 11.6118 11.5579C11.609 10.3779 10.6569 9.41567 9.49497 9.41857C8.33449 9.42147 7.38812 10.3896 7.39097 11.571Z" fill="#7A8596"/>
<path d="M6.98265 7.20524C7.07686 6.645 7.15537 6.03832 7.28669 5.4447C7.3652 5.08766 7.31238 4.84092 7.02833 4.59418C6.60011 4.22262 6.21471 3.80027 5.80789 3.40113C5.68514 3.28067 5.5895 3.15295 5.64802 2.97007C5.70798 2.77994 5.85785 2.72914 6.03913 2.70301C6.70003 2.61158 7.35806 2.50417 8.01752 2.41274C8.14599 2.39532 8.20737 2.33871 8.26018 2.22841C8.54709 1.62608 8.84399 1.02811 9.12947 0.424325C9.20941 0.257415 9.30933 0.135498 9.50631 0.135498C9.70329 0.135498 9.79893 0.267575 9.87744 0.433034C10.1601 1.02956 10.4541 1.62027 10.7382 2.2168C10.7938 2.33436 10.8581 2.39387 10.9951 2.41274C11.656 2.50272 12.314 2.61013 12.9735 2.70301C13.1448 2.72769 13.2889 2.77849 13.3518 2.95701C13.4203 3.15004 13.3175 3.28212 13.1905 3.40694C12.7166 3.87284 12.2398 4.33728 11.7759 4.81479C11.7074 4.88446 11.6603 5.02379 11.6745 5.12104C11.7716 5.76836 11.8901 6.41278 11.9986 7.05865C12.0271 7.22701 12.0657 7.40263 11.9129 7.53906C11.763 7.67404 11.6075 7.64791 11.4462 7.56083C10.8638 7.24733 10.2771 6.94254 9.69901 6.62033C9.54913 6.53615 9.44065 6.54776 9.29648 6.62613C8.71124 6.94979 8.1203 7.26329 7.52935 7.57389C7.23959 7.72629 6.97409 7.56228 6.98265 7.20669V7.20524ZM6.83135 3.31115C7.19391 3.70302 7.55504 4.10216 7.92617 4.49258C8.06035 4.63337 8.11173 4.77851 8.07462 4.9759C7.97613 5.50856 7.89334 6.04267 7.79627 6.62178C8.16312 6.42584 8.49 6.24877 8.81973 6.07751C9.63478 5.6566 9.35786 5.64644 10.1886 6.07751C10.5169 6.24877 10.8424 6.42439 11.2049 6.61742C11.1136 6.06589 11.0451 5.55791 10.9409 5.05718C10.8852 4.78867 10.9409 4.59273 11.1464 4.42582C11.2206 4.36631 11.2877 4.29519 11.3534 4.22553C11.6346 3.92509 11.9143 3.6232 12.1955 3.32131C12.1584 3.31405 12.1042 3.29809 12.0485 3.29083C11.5703 3.21826 11.0936 3.14134 10.614 3.07747C10.4256 3.0528 10.3128 2.95701 10.2329 2.7872C10.0273 2.35178 9.8132 1.91926 9.60052 1.48675C9.5734 1.43159 9.53914 1.37934 9.49346 1.30097C9.2508 1.7988 9.01814 2.26179 8.80117 2.73349C8.70553 2.94249 8.57707 3.07167 8.34154 3.08618C8.17454 3.09779 8.00753 3.13263 7.84195 3.15875C7.49081 3.21245 7.13824 3.2647 6.83135 3.3126V3.31115Z" fill="#7A8596"/>
<path d="M1.08179 8.71027C1.16601 8.2139 1.25022 7.68559 1.34729 7.15873C1.37583 7.00343 1.35157 6.89603 1.23452 6.78572C0.876241 6.44465 0.530808 6.08905 0.178238 5.74362C0.055481 5.62316 -0.0401554 5.49543 0.016941 5.31256C0.0754648 5.12097 0.23248 5.06727 0.409478 5.0426C0.901935 4.97148 1.39439 4.89311 1.88827 4.8307C2.02102 4.81328 2.09239 4.75958 2.14806 4.63911C2.36217 4.18192 2.58913 3.73344 2.80324 3.27625C2.8789 3.1137 2.98024 3.00049 3.16438 3.00049C3.34709 3.00049 3.45271 3.10644 3.52979 3.27045C3.74676 3.73344 3.96944 4.19499 4.2021 4.64927C4.24064 4.72474 4.34056 4.80022 4.42193 4.81328C4.90439 4.89746 5.39114 4.96713 5.87645 5.03679C6.06345 5.06437 6.24615 5.0934 6.3161 5.30675C6.38747 5.52446 6.24901 5.65364 6.11483 5.78571C5.78367 6.11228 5.45965 6.4461 5.12136 6.7654C4.99432 6.88587 4.95578 6.99908 4.99003 7.1747C5.08424 7.64785 5.15419 8.12681 5.23555 8.60287C5.26552 8.77849 5.27694 8.94685 5.11136 9.06732C4.94721 9.18633 4.79448 9.12682 4.63889 9.04264C4.19925 8.80461 3.75675 8.57529 3.31997 8.33291C3.21148 8.2734 3.12869 8.27195 3.02021 8.33291C2.55773 8.58836 2.09097 8.838 1.62135 9.07893C1.33587 9.22552 1.06609 9.0528 1.08322 8.71172L1.08179 8.71027ZM3.16723 4.14564C3.01307 4.46349 2.86319 4.72039 2.76042 4.99761C2.62767 5.35755 2.39786 5.52011 2.02102 5.53607C1.72983 5.54768 1.44292 5.6188 1.16315 5.66235C1.43008 5.94682 1.67702 6.22258 1.93681 6.48383C2.0824 6.62897 2.12951 6.78137 2.08811 6.98602C2.01531 7.35032 1.96393 7.71897 1.89684 8.12391C2.23656 7.94394 2.54203 7.7988 2.82894 7.62318C3.06303 7.47949 3.26715 7.47659 3.50267 7.62173C3.79244 7.7988 4.10219 7.94394 4.43477 8.11955C4.37197 7.73929 4.33628 7.39821 4.25635 7.06875C4.18498 6.78137 4.2749 6.58979 4.47759 6.4011C4.72168 6.17178 4.94007 5.91489 5.17417 5.6638C4.81304 5.60864 4.4519 5.54333 4.08934 5.50124C3.87237 5.47657 3.74962 5.36481 3.66112 5.17323C3.50981 4.84521 3.34851 4.52155 3.16723 4.14854V4.14564Z" fill="#7A8596"/>
<path d="M13.7499 8.72053C13.8341 8.22125 13.9169 7.69149 14.0154 7.16608C14.0468 7.00207 14.0154 6.89032 13.8941 6.77421C13.5401 6.43893 13.2004 6.08915 12.8521 5.74807C12.725 5.62325 12.6237 5.49262 12.6908 5.29814C12.7579 5.10655 12.9192 5.06446 13.0919 5.03979C13.5843 4.96867 14.0768 4.88884 14.5692 4.82643C14.6977 4.81047 14.7591 4.75241 14.8105 4.64211C15.0303 4.18056 15.2587 3.72338 15.4771 3.25893C15.5499 3.10218 15.6512 3.00058 15.8239 2.99623C16.0066 2.99187 16.1151 3.09492 16.1922 3.25893C16.4092 3.72192 16.639 4.17911 16.8574 4.64211C16.9088 4.75241 16.9716 4.80612 17.1 4.82208C17.5868 4.88304 18.0707 4.96432 18.556 5.03398C18.7359 5.06011 18.9071 5.09349 18.9785 5.29669C19.0499 5.50278 18.9314 5.63341 18.8001 5.76258C18.4532 6.10511 18.1121 6.45345 17.7595 6.78872C17.6482 6.89467 17.6225 6.99627 17.6496 7.14286C17.7409 7.64794 17.8337 8.15303 17.8994 8.66102C17.9151 8.78729 17.858 8.95565 17.7752 9.05435C17.6639 9.18787 17.4983 9.14288 17.3513 9.06305C16.8988 8.81922 16.442 8.58264 15.9938 8.333C15.8753 8.26624 15.7883 8.27204 15.6741 8.33591C15.2173 8.58845 14.7577 8.83228 14.2938 9.07176C14.0068 9.2198 13.7342 9.05435 13.7471 8.71762L13.7499 8.72053ZM17.8494 5.66244C17.4883 5.60729 17.1314 5.54052 16.7703 5.50133C16.5448 5.47666 16.4177 5.36055 16.3264 5.16171C16.1779 4.83514 16.0152 4.51438 15.8382 4.15008C15.6512 4.5318 15.4828 4.86707 15.3243 5.2067C15.2444 5.37651 15.1302 5.47085 14.9418 5.49553C14.5692 5.54342 14.1981 5.60728 13.8241 5.66534C14.0968 5.95272 14.3509 6.22848 14.6163 6.49409C14.7562 6.63342 14.8005 6.78146 14.7619 6.9774C14.6906 7.34606 14.6349 7.71906 14.5678 8.1269C14.919 7.93968 15.2401 7.78002 15.5499 7.5986C15.7497 7.48249 15.9267 7.48103 16.1265 7.59715C16.4363 7.77567 16.7575 7.93822 17.1072 8.124C17.0401 7.72051 16.9901 7.35331 16.9159 6.99191C16.8717 6.77711 16.9288 6.62326 17.0801 6.47377C17.3413 6.21687 17.5868 5.94401 17.8509 5.66534L17.8494 5.66244Z" fill="#7A8596"/>
<path d="M9.85186 20.5C9.85614 20.6931 9.70056 20.86 9.51071 20.8643C9.32086 20.8687 9.15671 20.7105 9.15243 20.5175C9.14815 20.323 9.30231 20.1575 9.49358 20.1532C9.68343 20.1488 9.84758 20.307 9.85186 20.5Z" fill="#7A8596"/>
</svg>
