<svg width="22" height="31" viewBox="0 0 22 31" fill="none" xmlns="http://www.w3.org/2000/svg">
<path d="M21.6931 0C21.9255 0.127265 22.0059 0.32282 22.0029 0.595975C21.991 1.63583 22.0029 2.67568 21.997 3.71243C21.997 4.01973 21.8182 4.21528 21.568 4.21528C21.3207 4.21528 21.148 4.01662 21.1301 3.71243C21.1271 3.64103 21.1301 3.57274 21.1301 3.50135C21.1301 2.75328 21.1301 2.00831 21.1301 1.26024V0.921898H0.878759V1.3099C0.878759 8.12016 0.878759 14.9304 0.878759 21.7407C0.878759 21.8803 0.878759 22.0262 0.843011 22.1597C0.783431 22.3832 0.622564 22.4856 0.402117 22.467C0.18167 22.4484 0.0476149 22.3149 0.0178247 22.0852C0.00292969 21.9859 0.00888771 21.8834 0.00888771 21.7841C0.0059087 14.7504 0.0059087 7.71974 0.00292969 0.685992C0.00292969 0.397317 0.0297408 0.142786 0.309768 0H21.6931Z" fill="#307CBF"/>
<path d="M0.879139 30.0751H21.1275C21.1275 29.9354 21.1275 29.7988 21.1275 29.6653C21.1275 21.8338 21.1275 14.0055 21.1275 6.17399C21.1275 6.0343 21.1275 5.88842 21.1602 5.75494C21.2169 5.53145 21.3777 5.42591 21.5952 5.44143C21.8186 5.45695 21.9527 5.58732 21.9854 5.81392C22.0003 5.91325 21.9944 6.01568 21.9944 6.11501C21.9944 14.1762 21.9944 22.2405 21.9944 30.3017C21.9944 30.8914 21.8901 31.0001 21.3122 31.0001C14.4366 31.0001 7.56106 31.0001 0.685504 31.0001C0.0986383 31.0001 0.000331001 30.8976 0.000331001 30.2768C0.000331001 28.3182 0.000331001 26.3626 0.000331001 24.404C0.000331001 24.2922 -0.00264801 24.1805 0.00926804 24.0719C0.0390582 23.8391 0.196946 23.6807 0.399519 23.7056C0.551448 23.7242 0.715294 23.8639 0.819559 23.9943C0.885097 24.0781 0.867223 24.2457 0.867223 24.3729C0.867223 26.1485 0.867223 27.924 0.867223 29.6995C0.867223 29.8174 0.867223 29.9354 0.867223 30.072L0.879139 30.0751Z" fill="#307CBF"/>
<path d="M19.0213 18.0499H17.0909V28.1132H19.0213V27.7748C19.0213 25.6982 19.0213 23.6185 19.0213 21.5419C19.0213 21.4426 19.0124 21.3371 19.0273 21.2408C19.066 20.9987 19.212 20.8591 19.4414 20.8528C19.6707 20.8435 19.8227 20.9832 19.8793 21.216C19.9001 21.3029 19.8912 21.396 19.8912 21.4861C19.8912 23.7862 19.8912 26.0862 19.8912 28.3832C19.8912 28.9078 19.7601 29.0444 19.2537 29.0444C18.4315 29.0444 17.6093 29.0444 16.7841 29.0444C16.3462 29.0444 16.2002 28.8985 16.2002 28.4515C16.2002 24.8726 16.2002 21.2905 16.2002 17.7116C16.2002 17.277 16.3432 17.1311 16.7602 17.1311C17.6212 17.1311 18.4821 17.1311 19.346 17.1311C19.7393 17.1311 19.8882 17.2863 19.8912 17.696C19.8912 18.1585 19.8942 18.6241 19.8912 19.0866C19.8912 19.425 19.7333 19.6174 19.4682 19.6236C19.1911 19.6299 19.0243 19.4343 19.0213 19.0804C19.0183 18.7483 19.0213 18.4162 19.0213 18.0499Z" fill="#307CBF"/>
<path d="M8.62139 9.44239C8.62139 11.3793 7.09911 12.9593 5.23723 12.9562C3.39322 12.95 1.88286 11.37 1.87988 9.4455C1.87988 7.51168 3.40216 5.92862 5.26404 5.93483C7.10805 5.94104 8.62139 7.52099 8.62139 9.4455V9.44239ZM4.81421 6.9095C3.61665 7.04297 2.68719 8.29079 2.75571 9.61001C2.82721 10.9851 3.97115 12.0746 5.31468 12.0467C6.48246 12.0218 7.64129 10.9789 7.6681 9.89558C6.9442 9.89558 6.2203 9.89558 5.49938 9.89558C4.90656 9.89558 4.81421 9.79936 4.81421 9.16924C4.81421 8.42427 4.81421 7.6824 4.81421 6.9095ZM5.70791 6.9126V8.96437H7.68002C7.58171 7.98039 6.64332 7.00262 5.70791 6.9126Z" fill="#307CBF"/>
<path d="M10.9721 4.82991C9.49152 4.82991 8.01095 4.82991 6.53038 4.82991C5.99714 4.82991 5.87798 4.70575 5.875 4.15944C5.875 3.65658 5.875 3.15062 5.875 2.64777C5.875 2.07042 5.98522 1.95247 6.53336 1.95247C9.38725 1.95247 12.2411 1.95247 15.095 1.95247C15.2797 1.95247 15.4644 1.94626 15.6462 1.95247C15.9709 1.96799 16.1198 2.12629 16.1258 2.46774C16.1317 3.02336 16.1258 3.57588 16.1258 4.1315C16.1258 4.70575 16.0126 4.8268 15.4674 4.8268C13.969 4.8268 12.4676 4.8268 10.9691 4.8268L10.9721 4.82991ZM6.76572 3.9018H15.238V2.88057H6.76572V3.9018Z" fill="#307CBF"/>
<path d="M15.1903 24.3078C15.1903 25.6798 15.1903 27.0487 15.1903 28.4206C15.1903 28.908 15.0563 29.0446 14.5826 29.0477C13.7604 29.0477 12.9382 29.0477 12.116 29.0477C11.6453 29.0477 11.5112 28.9111 11.5112 28.4206C11.5112 25.6798 11.5112 22.9358 11.5112 20.195C11.5112 19.7076 11.6453 19.571 12.1189 19.571C12.9501 19.571 13.7842 19.571 14.6154 19.571C15.0473 19.571 15.1903 19.72 15.1903 20.167C15.1903 21.5483 15.1903 22.9296 15.1903 24.3109V24.3078ZM14.3085 20.496H12.4049V28.1165H14.3085V20.496Z" fill="#307CBF"/>
<path d="M6.81299 26.1391C6.81299 25.3631 6.81299 24.5871 6.81299 23.8111C6.81299 23.3983 6.95896 23.2493 7.35517 23.2493C8.2161 23.2493 9.07704 23.2493 9.93797 23.2493C10.3401 23.2493 10.4891 23.3952 10.4891 23.8049C10.4891 25.3693 10.4891 26.9307 10.4891 28.4951C10.4891 28.8893 10.3372 29.0476 9.9618 29.0507C9.09193 29.0569 8.21908 29.0569 7.34921 29.0507C6.95598 29.0507 6.81299 28.8893 6.81299 28.4734C6.81299 27.6974 6.81299 26.9213 6.81299 26.1453V26.1391ZM7.69775 28.1133H9.60134V24.1712H7.69775V28.1133Z" fill="#307CBF"/>
<path d="M15.3304 5.9349C16.7156 5.9349 18.0979 5.9349 19.4831 5.9349C19.5606 5.9349 19.638 5.92869 19.7155 5.938C19.9598 5.96904 20.1028 6.11493 20.1206 6.36946C20.1385 6.60848 19.9627 6.80713 19.7185 6.83817C19.641 6.84749 19.5636 6.84128 19.4861 6.84128C16.7275 6.84128 13.969 6.84128 11.2104 6.84128C11.1151 6.84128 11.0138 6.85059 10.9214 6.82886C10.698 6.77299 10.5699 6.61779 10.5759 6.37257C10.5818 6.12735 10.7189 5.98146 10.9453 5.94111C11.0287 5.92559 11.1181 5.9349 11.2074 5.9349C12.5808 5.9349 13.9571 5.9349 15.3304 5.9349Z" fill="#307CBF"/>
<path d="M15.3364 10.9139C13.972 10.9139 12.6076 10.9139 11.2432 10.9139C11.1479 10.9139 11.0496 10.917 10.9542 10.9045C10.7338 10.8766 10.6027 10.74 10.5819 10.5103C10.558 10.2682 10.6653 10.0975 10.8947 10.0354C11.0049 10.0044 11.1241 10.0075 11.2402 10.0075C13.9779 10.0075 16.7157 10.0075 19.4563 10.0075C19.5636 10.0075 19.6708 10.0044 19.7751 10.0261C20.0015 10.0758 20.1356 10.2341 20.1266 10.4762C20.1177 10.7307 19.9747 10.8828 19.7274 10.9076C19.6321 10.917 19.5338 10.9139 19.4385 10.9139C18.0741 10.9139 16.7097 10.9139 15.3453 10.9139H15.3364Z" fill="#307CBF"/>
<path d="M15.3628 7.97729C16.7659 7.97729 18.169 7.97729 19.5721 7.97729C19.8164 7.97729 20.016 8.03317 20.1054 8.29391C20.1858 8.52981 20.0488 8.79055 19.8015 8.85574C19.6913 8.88367 19.5721 8.88678 19.4559 8.88678C16.7182 8.88678 13.9805 8.88678 11.2398 8.88678C11.1922 8.88678 11.1445 8.88678 11.0938 8.88678C10.7572 8.87436 10.5666 8.69743 10.5755 8.41186C10.5844 8.1356 10.7632 7.9804 11.0938 7.9804C12.5148 7.9804 13.9388 7.9804 15.3598 7.9804L15.3628 7.97729Z" fill="#307CBF"/>
<path d="M3.971 29.0475C3.53606 29.0475 3.10113 29.0506 2.66321 29.0475C2.26999 29.0444 2.11508 28.883 2.1121 28.4795C2.10912 27.8959 2.10912 27.3093 2.1121 26.7257C2.1121 26.3532 2.26701 26.1794 2.62151 26.1763C3.51223 26.167 4.40296 26.1701 5.29368 26.1763C5.63627 26.1763 5.79416 26.3439 5.80011 26.6978C5.80905 27.3124 5.80905 27.927 5.80011 28.5447C5.79416 28.8799 5.63329 29.0413 5.3056 29.0475C4.86172 29.0568 4.41487 29.0475 3.971 29.0475ZM4.90939 28.1225V27.0982H3.0058V28.1225H4.90939Z" fill="#307CBF"/>
<path d="M7.04248 17.9911C5.79427 17.9911 4.54309 17.9911 3.29488 17.9911C3.19955 17.9911 3.09827 17.9973 3.00592 17.9817C2.78845 17.9414 2.63056 17.7831 2.66035 17.5689C2.6812 17.4106 2.81824 17.2492 2.94038 17.1312C3.00294 17.0723 3.14295 17.0878 3.24722 17.0878C5.77342 17.0878 8.3026 17.0878 10.8288 17.0878C10.9063 17.0878 10.9867 17.0816 11.0612 17.0971C11.2995 17.1499 11.4425 17.302 11.4276 17.5627C11.4157 17.8203 11.2697 17.9724 11.0224 17.988C10.8288 18.0004 10.6352 17.9942 10.4415 17.9942C9.30951 17.9942 8.1745 17.9942 7.04248 17.9942V17.9911Z" fill="#307CBF"/>
<path d="M7.04261 15.0483C8.29081 15.0483 9.53902 15.0483 10.7902 15.0483C10.8975 15.0483 11.0047 15.0452 11.109 15.0669C11.3145 15.1135 11.4575 15.2718 11.4188 15.4735C11.389 15.6349 11.2639 15.7994 11.1358 15.9081C11.0553 15.9764 10.8945 15.9515 10.7694 15.9515C8.28188 15.9515 5.7944 15.9515 3.30395 15.9515C2.86306 15.9515 2.64559 15.7994 2.64261 15.4984C2.63963 15.1942 2.85412 15.0452 3.29501 15.0452C4.54322 15.0452 5.79142 15.0452 7.04261 15.0452V15.0483Z" fill="#307CBF"/>
<path d="M13.5876 12.9564C12.7654 12.9564 11.9403 12.9564 11.118 12.9564C10.7725 12.9564 10.5788 12.7981 10.5729 12.5125C10.5669 12.2176 10.7635 12.0469 11.127 12.0469C12.7625 12.0469 14.4009 12.0469 16.0364 12.0469C16.4028 12.0469 16.5964 12.2114 16.5964 12.5032C16.5964 12.7949 16.3998 12.9533 16.0304 12.9533C15.2172 12.9533 14.4039 12.9533 13.5906 12.9533L13.5876 12.9564Z" fill="#307CBF"/>
<path d="M5.27909 19.127C5.98511 19.127 6.69114 19.127 7.39716 19.127C7.71294 19.127 7.90955 19.3008 7.91551 19.5677C7.91849 19.8347 7.72188 20.0302 7.41206 20.0302C5.98809 20.0333 4.5671 20.0333 3.14313 20.0302C2.83332 20.0302 2.6367 19.8347 2.63968 19.5677C2.64266 19.3008 2.83928 19.127 3.15803 19.127C3.86406 19.127 4.57008 19.127 5.27611 19.127H5.27909Z" fill="#307CBF"/>
</svg>
