<svg width="37" height="33" viewBox="0 0 37 33" fill="none" xmlns="http://www.w3.org/2000/svg">
<path d="M34.597 31.3321C34.919 31.3321 35.2022 31.3286 35.4853 31.3321C35.9135 31.3428 36.1612 31.548 36.1506 31.8736C36.1364 32.1815 35.8993 32.3655 35.4853 32.3655C33.4327 32.3655 31.3801 32.3655 29.331 32.3655C26.0114 32.3655 22.6919 32.3655 19.3688 32.3655C13.8091 32.3655 8.24934 32.3655 2.68962 32.3655C1.99244 32.3655 1.2988 32.3691 0.601625 32.3655C0.215877 32.362 0 32.1709 0 31.8559C0 31.5445 0.215877 31.3498 0.598086 31.3357C0.891821 31.3251 1.18909 31.3357 1.53237 31.3357C1.53237 31.141 1.53237 30.9853 1.53237 30.8261C1.53237 25.9104 1.53237 20.9983 1.53237 16.0827C1.53237 15.3891 1.66332 15.2581 2.36049 15.2581C5.45709 15.2581 8.55723 15.2581 11.6538 15.2581C11.7989 15.2581 11.9476 15.2581 12.1422 15.2581C12.1422 15.0812 12.1422 14.9396 12.1422 14.7945C12.1422 11.1352 12.1422 7.47947 12.1422 3.82018C12.1422 3.17608 12.1847 3.11946 12.7721 2.88589C14.6443 2.14978 16.5128 1.40306 18.3885 0.681108C18.5654 0.613867 18.8167 0.617406 18.9901 0.688185C21.2161 1.60832 23.4351 2.54615 25.6575 3.48043C26.2238 3.71755 26.2521 3.76001 26.2521 4.36518C26.2521 6.63012 26.2521 8.89506 26.2521 11.16C26.2521 11.3086 26.2521 11.4537 26.2521 11.6625C26.7617 11.6625 27.243 11.6979 27.7172 11.6555C28.471 11.5847 29.1045 11.8006 29.7451 12.1934C31.1819 13.0817 32.6541 13.9133 34.1228 14.7521C34.466 14.9467 34.6005 15.1909 34.6005 15.5908C34.5899 20.6798 34.5934 25.7689 34.5934 30.8579V31.3392L34.597 31.3321ZM19.2272 1.90559V31.3074H25.2293C25.2293 31.1446 25.2293 31.0101 25.2293 30.8756C25.2223 24.6435 25.2116 18.4114 25.2081 12.1792C25.2081 9.70549 25.2187 7.22821 25.2364 4.75446C25.2364 4.49966 25.1586 4.37933 24.9285 4.28732C23.7465 3.80248 22.568 3.29995 21.3895 2.80803C20.6818 2.51076 19.974 2.21702 19.2308 1.90913L19.2272 1.90559ZM18.1443 31.3144V1.88436C16.5765 2.50014 15.0442 3.11238 13.5047 3.69985C13.2358 3.80248 13.1685 3.93696 13.1685 4.213C13.1756 13.1064 13.1756 21.9999 13.1756 30.8933V31.3109H18.1443V31.3144ZM12.1139 31.3144V16.3234H2.58699V31.3144H12.1174H12.1139ZM33.5424 31.3144C33.5495 31.2118 33.5565 31.1517 33.5565 31.0915C33.5565 26.0272 33.5565 20.963 33.5636 15.8987C33.5636 15.6722 33.4681 15.5731 33.2911 15.4705C32.0312 14.745 30.7749 14.0089 29.5186 13.2798C29.4195 13.2232 29.3098 13.1772 29.1859 13.1135V31.318H33.5459L33.5424 31.3144ZM26.2769 12.7242V31.3109H28.1065V12.7242H26.2769Z" fill="#0C3E9F"/>
<path d="M31.6882 27.1596C31.6882 27.1596 31.6846 27.1596 31.6811 27.1596C31.6811 27.2693 31.6669 27.3825 31.6811 27.4923C31.72 27.7541 31.8722 27.9205 32.1412 27.9452C32.4101 27.97 32.626 27.8426 32.6685 27.5843C32.7109 27.3118 32.7322 27.0039 32.6437 26.7526C32.5906 26.6004 32.311 26.42 32.1482 26.4341C31.9854 26.4483 31.8191 26.6712 31.6953 26.834C31.6422 26.9048 31.6846 27.0499 31.6846 27.1596H31.6882ZM31.628 24.6009C31.6917 24.8133 31.7094 25.0468 31.8227 25.2202C31.9819 25.4644 32.3252 25.4644 32.5411 25.2662C32.7994 25.0256 32.7994 24.2258 32.5411 23.9887C32.3252 23.7905 31.9854 23.794 31.8227 24.0382C31.72 24.1904 31.6988 24.3957 31.6316 24.6009H31.628ZM31.6846 22.0422C31.6846 22.1661 31.6705 22.29 31.6846 22.4138C31.7342 22.7323 32.0491 22.9305 32.3429 22.8244C32.7357 22.6828 32.7074 22.3466 32.7109 22.021C32.718 21.7167 32.6614 21.4442 32.3393 21.3274C32.0491 21.2212 31.7306 21.43 31.6811 21.7485C31.6669 21.8441 31.6811 21.9467 31.6811 22.0458L31.6846 22.0422ZM32.7286 19.572C32.7109 19.4092 32.7145 19.2571 32.6755 19.1191C32.5765 18.7899 32.219 18.6554 31.9324 18.8289C31.5714 19.0447 31.5572 19.979 31.9076 20.2126C32.1872 20.3966 32.5517 20.2798 32.6649 19.9578C32.7074 19.8339 32.7109 19.6924 32.7286 19.572ZM32.7286 29.7466C32.7286 29.7466 32.718 29.7466 32.7145 29.7466C32.7145 29.6723 32.718 29.5979 32.7145 29.5236C32.6897 29.1733 32.4986 28.968 32.1978 28.9609C31.8828 28.9574 31.6882 29.1733 31.6811 29.5484C31.6776 29.7218 31.628 29.9235 31.7023 30.058C31.7943 30.2314 31.9607 30.4154 32.1376 30.4756C32.3854 30.5605 32.5906 30.4013 32.672 30.1429C32.7109 30.0155 32.7109 29.8775 32.7286 29.743V29.7466ZM32.764 16.9957C32.7039 16.7869 32.6826 16.5675 32.58 16.3976C32.4349 16.1534 32.0704 16.1392 31.8545 16.3268C31.6032 16.5462 31.5962 17.3814 31.8439 17.6079C32.0492 17.799 32.4207 17.7919 32.5729 17.5584C32.6755 17.4026 32.7003 17.1938 32.764 16.9957ZM30.9698 18.429C30.9698 18.429 30.9627 18.429 30.9591 18.429C30.9591 18.3546 30.9627 18.2803 30.9591 18.206C30.9344 17.8663 30.7256 17.6327 30.4389 17.6575C30.124 17.6858 29.9505 17.8698 29.9435 18.1918C29.9399 18.39 29.9328 18.5882 29.9576 18.7828C29.993 19.0518 30.1806 19.1969 30.4425 19.2004C30.7043 19.204 30.8884 19.0624 30.9415 18.797C30.9662 18.6767 30.9627 18.5528 30.9698 18.429ZM30.9591 15.8632C30.9591 15.7889 30.9591 15.7146 30.9591 15.6402C30.945 15.3217 30.7822 15.1306 30.4602 15.1094C30.1629 15.0917 29.9612 15.3111 29.9435 15.6579C29.9364 15.8066 29.9364 15.9552 29.9435 16.1038C29.9612 16.4436 30.1735 16.6807 30.4602 16.6559C30.7751 16.6312 30.9485 16.4436 30.9591 16.1215C30.9591 16.0366 30.9591 15.9481 30.9591 15.8632ZM30.9662 20.9841H30.9591C30.9591 20.9098 30.9627 20.8355 30.9591 20.7611C30.9344 20.4179 30.7185 20.1843 30.4283 20.2126C30.1098 20.2444 29.9399 20.4391 29.9399 20.7611C29.9399 20.9487 29.9293 21.1363 29.9541 21.3203C29.9859 21.5928 30.1629 21.745 30.4318 21.752C30.7185 21.7591 30.899 21.6069 30.9485 21.3203C30.9662 21.2106 30.9627 21.0973 30.9662 20.9841ZM29.9293 28.6212C29.9293 28.6212 29.9364 28.6212 29.9399 28.6212C29.9399 28.7097 29.9328 28.7946 29.9399 28.8831C29.9647 29.2016 30.17 29.4352 30.4495 29.4139C30.768 29.3927 30.9485 29.2051 30.9556 28.8795C30.9591 28.6672 31.0052 28.4265 30.9202 28.2567C30.8388 28.0903 30.6088 27.8957 30.446 27.8957C30.2832 27.8957 30.0956 28.101 29.9647 28.2567C29.901 28.3345 29.9364 28.4973 29.9258 28.6212H29.9293ZM29.9293 26.0661C29.9293 26.0661 29.9328 26.0661 29.9364 26.0661C29.9364 26.1545 29.9364 26.2395 29.9364 26.3279C29.9505 26.65 30.1169 26.8482 30.4425 26.8517C30.768 26.8517 30.9379 26.6535 30.9521 26.3315C30.9591 26.1333 30.9662 25.9316 30.9379 25.7369C30.899 25.468 30.7185 25.3264 30.446 25.3264C30.177 25.3264 30.0001 25.4644 29.9505 25.7369C29.9293 25.8466 29.9364 25.9599 29.9293 26.0696V26.0661ZM29.9258 23.5215H29.9399C29.9399 23.6206 29.9328 23.7233 29.9399 23.8188C29.9682 24.1267 30.1416 24.3001 30.4495 24.2966C30.7397 24.2966 30.9202 24.1338 30.945 23.8436C30.9662 23.6242 31.0052 23.3729 30.9238 23.1818C30.853 23.0119 30.6371 22.8031 30.4743 22.7925C30.3115 22.7819 30.1027 22.9695 29.9718 23.1181C29.8975 23.1995 29.9364 23.38 29.9258 23.5145V23.5215Z" fill="white"/>
<path d="M24.4364 29.23C24.4364 29.3928 24.4471 29.552 24.4364 29.7113C24.4117 30.0262 24.1958 30.2386 23.9091 30.2209C23.6048 30.2032 23.4278 30.0227 23.4101 29.7254C23.3924 29.3928 23.3889 29.0566 23.4101 28.7239C23.4314 28.4302 23.6012 28.2426 23.9162 28.2391C24.2276 28.2355 24.3975 28.4196 24.4329 28.7133C24.4541 28.8832 24.4364 29.0601 24.4364 29.2335V29.23Z" fill="#0C3E9F"/>
<path d="M24.4367 9.86823C24.4367 10.031 24.4473 10.1903 24.4367 10.3495C24.4119 10.668 24.1996 10.8662 23.9094 10.8521C23.5979 10.8379 23.4316 10.6539 23.4104 10.3566C23.3891 10.0346 23.3962 9.71251 23.4104 9.39047C23.421 9.07196 23.5979 8.87024 23.92 8.8667C24.242 8.8667 24.4154 9.06134 24.4402 9.37985C24.4508 9.5391 24.4402 9.7019 24.4402 9.86115L24.4367 9.86823Z" fill="#0C3E9F"/>
<path d="M21.6728 24.6753C21.6728 24.5019 21.6622 24.3285 21.6728 24.1551C21.6976 23.8826 21.8674 23.7234 22.1293 23.6986C22.3947 23.6738 22.6248 23.8012 22.6496 24.0666C22.6885 24.4807 22.6885 24.9054 22.6496 25.323C22.6248 25.5884 22.3912 25.7158 22.1258 25.691C21.8674 25.6663 21.694 25.507 21.6728 25.2345C21.6586 25.0505 21.6728 24.8629 21.6728 24.6789V24.6753Z" fill="#0C3E9F"/>
<path d="M20.9363 27.9136C20.9363 28.087 20.9469 28.2604 20.9363 28.4338C20.9115 28.724 20.7346 28.8904 20.455 28.9045C20.1896 28.9187 19.9701 28.7771 19.9489 28.5117C19.9135 28.1082 19.9135 27.6942 19.9489 27.2907C19.9737 27.0253 20.1966 26.8908 20.4621 26.9085C20.7239 26.9262 20.9009 27.0819 20.9327 27.3509C20.954 27.5349 20.9363 27.7225 20.9363 27.9065V27.9136Z" fill="#0C3E9F"/>
<path d="M24.4364 25.3583C24.4364 25.5211 24.4471 25.6804 24.4364 25.8432C24.4117 26.1546 24.1852 26.3776 23.9091 26.3563C23.6119 26.3316 23.4243 26.1546 23.4101 25.8538C23.3924 25.5211 23.3889 25.1849 23.4101 24.8487C23.4314 24.555 23.6048 24.3639 23.9162 24.3604C24.2276 24.3604 24.394 24.5408 24.4329 24.8381C24.4541 25.008 24.4364 25.1849 24.4364 25.3583Z" fill="#0C3E9F"/>
<path d="M20.9367 8.56949C20.9367 8.7429 20.9508 8.91631 20.9367 9.08972C20.9084 9.37992 20.7173 9.53917 20.4412 9.54625C20.1793 9.55333 19.967 9.40823 19.9422 9.13927C19.9104 8.74644 19.9068 8.34654 19.9422 7.95725C19.9705 7.67767 20.19 7.53611 20.4801 7.56088C20.7491 7.58566 20.9084 7.74845 20.9367 8.01387C20.9544 8.1979 20.9367 8.38547 20.9367 8.56949Z" fill="#0C3E9F"/>
<path d="M24.433 13.7435C24.433 13.9169 24.4543 14.0938 24.4295 14.2637C24.387 14.5574 24.2136 14.7379 23.9022 14.7308C23.6085 14.7238 23.435 14.5433 23.4138 14.2672C23.3855 13.9098 23.3855 13.5488 23.4138 13.1914C23.4386 12.9118 23.6368 12.7419 23.9163 12.7419C24.1995 12.7419 24.3835 12.9118 24.426 13.1914C24.4543 13.3719 24.4295 13.563 24.4295 13.747L24.433 13.7435Z" fill="#0C3E9F"/>
<path d="M20.9366 4.67648C20.9366 4.84989 20.9473 5.02329 20.9366 5.1967C20.9154 5.4869 20.7349 5.65323 20.4589 5.67447C20.197 5.69216 19.9705 5.55414 19.9493 5.28872C19.9139 4.88527 19.9103 4.47475 19.9493 4.07131C19.974 3.80943 20.1899 3.66787 20.4589 3.68556C20.742 3.70326 20.9119 3.86959 20.9366 4.15979C20.9508 4.3332 20.9366 4.5066 20.9366 4.68001V4.67648Z" fill="#0C3E9F"/>
<path d="M21.669 20.8107C21.669 20.6373 21.6584 20.4639 21.669 20.2905C21.6938 20.0003 21.8778 19.8375 22.1539 19.8233C22.4157 19.8127 22.6316 19.9543 22.6564 20.2232C22.6918 20.616 22.6953 21.0159 22.6564 21.4088C22.6316 21.6919 22.4122 21.8405 22.1291 21.8158C21.846 21.791 21.6796 21.6211 21.6619 21.3309C21.6513 21.1575 21.6619 20.9841 21.6619 20.8107H21.669Z" fill="#0C3E9F"/>
<path d="M20.9366 24.0595C20.9366 24.2223 20.9437 24.3816 20.9366 24.5444C20.9189 24.831 20.7561 25.008 20.473 25.0327C20.1863 25.0575 19.9669 24.9089 19.9421 24.6293C19.9032 24.2365 19.9103 23.8366 19.9421 23.4437C19.9634 23.1748 20.1828 23.0332 20.4447 23.0403C20.7207 23.0509 20.9083 23.2137 20.9366 23.5039C20.9543 23.6879 20.9366 23.8755 20.9366 24.0595Z" fill="#0C3E9F"/>
<path d="M23.403 5.986C23.403 5.81259 23.3853 5.63564 23.4066 5.46577C23.4455 5.16849 23.6224 4.99508 23.9339 5.00216C24.2241 5.00924 24.4046 5.18265 24.4258 5.46223C24.4541 5.80551 24.4506 6.15587 24.4258 6.49915C24.4046 6.79288 24.2276 6.98045 23.9162 6.98045C23.6048 6.98045 23.4384 6.79996 23.403 6.50269C23.3818 6.33282 23.3995 6.15587 23.3995 5.98246L23.403 5.986Z" fill="#0C3E9F"/>
<path d="M21.6728 16.9534C21.6728 16.7694 21.6586 16.5818 21.6728 16.3978C21.7011 16.1253 21.8816 15.9731 22.1435 15.9554C22.4054 15.9377 22.6319 16.0687 22.6566 16.3376C22.692 16.7411 22.6956 17.1516 22.6566 17.5551C22.6319 17.8205 22.4195 17.955 22.1506 17.9408C21.8639 17.9266 21.6976 17.7603 21.6728 17.4701C21.6586 17.2967 21.6728 17.1233 21.6728 16.9499V16.9534Z" fill="#0C3E9F"/>
<path d="M24.4328 21.4937C24.4328 21.6671 24.4505 21.8441 24.4293 22.0139C24.3939 22.2935 24.2169 22.4705 23.9338 22.4775C23.633 22.4846 23.4348 22.3041 23.4101 22.0069C23.3818 21.66 23.3853 21.3132 23.4101 20.9664C23.4313 20.6691 23.6153 20.4851 23.9232 20.4851C24.2276 20.4851 24.401 20.6762 24.4328 20.9735C24.4505 21.1434 24.4328 21.3203 24.4328 21.4937Z" fill="#0C3E9F"/>
<path d="M24.4329 17.6294C24.4329 17.7922 24.4471 17.955 24.4329 18.1142C24.4011 18.4115 24.2312 18.6026 23.9269 18.6062C23.6225 18.6097 23.4314 18.4257 23.4102 18.1284C23.3854 17.7816 23.3854 17.4348 23.4102 17.0879C23.4314 16.7907 23.6261 16.6066 23.9304 16.6137C24.2312 16.6208 24.4046 16.8119 24.4329 17.1092C24.4471 17.2826 24.4329 17.456 24.4329 17.6294Z" fill="#0C3E9F"/>
<path d="M20.933 12.4163C20.933 12.6004 20.9471 12.7879 20.9294 12.9719C20.9011 13.2444 20.7277 13.3966 20.4623 13.4143C20.1968 13.432 19.9739 13.3046 19.9456 13.0356C19.9066 12.6322 19.9031 12.2217 19.9456 11.8182C19.9739 11.5351 20.2039 11.4042 20.4906 11.4325C20.7595 11.4608 20.9153 11.6271 20.9365 11.8961C20.9506 12.0695 20.9365 12.2429 20.9365 12.4163H20.933Z" fill="#0C3E9F"/>
<path d="M20.9364 20.1878C20.9364 20.3471 20.9435 20.5099 20.9364 20.6691C20.9187 20.9558 20.763 21.1292 20.4763 21.154C20.1861 21.1787 19.9703 21.0336 19.9419 20.7541C19.903 20.3648 19.9066 19.9649 19.9419 19.572C19.9703 19.2889 20.1968 19.1474 20.4763 19.1757C20.7382 19.2004 20.9081 19.3562 20.9329 19.6287C20.947 19.8127 20.9329 20.0003 20.9329 20.1843L20.9364 20.1878Z" fill="#0C3E9F"/>
<path d="M22.7061 28.5964C22.6955 28.7875 22.699 28.9751 22.6672 29.1591C22.6212 29.4281 22.4301 29.5732 22.1682 29.5696C21.8921 29.5625 21.6904 29.4068 21.6762 29.1131C21.655 28.7557 21.6586 28.3947 21.6762 28.0372C21.6904 27.7683 21.8603 27.6055 22.1257 27.5807C22.4124 27.5559 22.6105 27.694 22.6672 27.9771C22.7061 28.1823 22.6955 28.3947 22.7061 28.5999V28.5964Z" fill="#0C3E9F"/>
<path d="M20.9366 16.3234C20.9366 16.4968 20.9508 16.6702 20.9331 16.8436C20.9012 17.1126 20.7385 17.2683 20.466 17.2825C20.197 17.3002 19.974 17.1728 19.9493 16.9073C19.9103 16.4933 19.9103 16.0686 19.9563 15.6545C19.9847 15.3891 20.2359 15.2369 20.4801 15.3183C20.6571 15.375 20.8375 15.5625 20.9154 15.7359C20.9897 15.9023 20.9296 16.1252 20.9296 16.3234H20.9366Z" fill="#0C3E9F"/>
<path d="M22.6815 13.103C22.6815 13.2764 22.7027 13.4534 22.6779 13.6197C22.6354 13.917 22.4514 14.0833 22.14 14.0656C21.8498 14.0479 21.6835 13.8781 21.6693 13.5914C21.6552 13.2446 21.6552 12.8978 21.6693 12.5545C21.6835 12.2643 21.8675 12.1015 22.1506 12.0873C22.4337 12.0732 22.6248 12.2254 22.6708 12.512C22.7027 12.7067 22.6921 12.9048 22.7027 13.103C22.6956 13.103 22.6885 13.103 22.6815 13.103Z" fill="#0C3E9F"/>
<path d="M22.7026 5.35607C22.692 5.5401 22.7026 5.72766 22.6707 5.91169C22.6212 6.19835 22.4265 6.34698 22.1469 6.32929C21.8674 6.31159 21.6833 6.1488 21.6727 5.85507C21.6586 5.50825 21.6586 5.16143 21.6727 4.81461C21.6869 4.52795 21.8603 4.36162 22.1469 4.34392C22.4371 4.32977 22.6212 4.48194 22.6707 4.76152C22.7026 4.95617 22.692 5.15435 22.7026 5.35253V5.35607Z" fill="#0C3E9F"/>
<path d="M22.6814 9.23142C22.6814 9.40483 22.7026 9.57824 22.6778 9.74811C22.6353 10.0454 22.4478 10.2117 22.1399 10.194C21.8532 10.1763 21.6834 10.0065 21.6692 9.71979C21.6551 9.37298 21.6515 9.02616 21.6692 8.68288C21.6834 8.39622 21.8603 8.22989 22.1505 8.21927C22.4407 8.20865 22.6283 8.36083 22.6707 8.64041C22.699 8.83505 22.6778 9.03323 22.6778 9.23142C22.6778 9.23142 22.6778 9.23142 22.6814 9.23142Z" fill="#0C3E9F"/>
<path d="M13.9932 21.2957C13.9932 21.1364 13.9791 20.9736 13.9932 20.8144C14.0251 20.5206 14.1808 20.3295 14.4957 20.3225C14.8072 20.3154 14.9912 20.4959 15.016 20.7896C15.0443 21.1329 15.0408 21.4832 15.016 21.8301C14.9947 22.1309 14.8036 22.3078 14.4993 22.3043C14.1949 22.3043 14.0215 22.1167 13.9932 21.8159C13.9755 21.6425 13.9932 21.4691 13.9932 21.2957Z" fill="#0C3E9F"/>
<path d="M15.0228 17.4558C15.0228 17.6292 15.044 17.8062 15.0192 17.9761C14.9768 18.2556 14.7998 18.422 14.5131 18.422C14.2265 18.422 14.0318 18.2556 14.0071 17.9761C13.9788 17.6186 13.9788 17.2577 14.0071 16.9002C14.0283 16.6242 14.2017 16.4472 14.4955 16.4402C14.8069 16.4331 14.9838 16.6065 15.0228 16.9038C15.0475 17.0878 15.0263 17.2753 15.0263 17.4594L15.0228 17.4558Z" fill="#0C3E9F"/>
<path d="M15.0263 25.2202C15.0263 25.383 15.0405 25.5423 15.0263 25.7015C14.9944 26.0023 14.821 26.1864 14.5202 26.1899C14.2194 26.1899 14.0248 26.013 14.0035 25.7121C13.9823 25.3653 13.9752 25.0185 14.0035 24.6717C14.0283 24.378 14.2123 24.1975 14.5238 24.2045C14.8175 24.2081 14.9803 24.385 15.0192 24.6611C15.044 24.8451 15.0228 25.0327 15.0228 25.2167L15.0263 25.2202Z" fill="#0C3E9F"/>
<path d="M13.9931 29.0673C13.9931 28.9045 13.979 28.7417 13.9931 28.5824C14.025 28.2887 14.1842 28.0976 14.4956 28.0905C14.8071 28.0835 14.9911 28.2675 15.0159 28.5612C15.0442 28.9045 15.0406 29.2549 15.0159 29.6017C14.9946 29.9025 14.7965 30.083 14.4992 30.0794C14.1984 30.0759 14.0214 29.8883 13.9931 29.5875C13.979 29.4141 13.9931 29.2407 13.9931 29.0673Z" fill="#0C3E9F"/>
<path d="M15.0262 13.5666C15.0262 13.7258 15.0404 13.8886 15.0262 14.0479C14.9908 14.3451 14.8245 14.5292 14.5166 14.5292C14.2087 14.5292 14.0247 14.3487 14.0034 14.0514C13.9787 13.7081 13.9787 13.3578 14.0034 13.0109C14.0247 12.7349 14.1981 12.5579 14.4918 12.5473C14.8033 12.5367 14.9802 12.7137 15.0227 13.0074C15.0474 13.1879 15.0262 13.379 15.0262 13.563V13.5666Z" fill="#0C3E9F"/>
<path d="M13.9932 5.74893C13.9932 5.58968 13.9791 5.42689 13.9932 5.26763C14.0251 4.97036 14.1879 4.78633 14.4993 4.77925C14.8072 4.77218 14.9947 4.95266 15.016 5.24994C15.0408 5.59322 15.0443 5.94358 15.016 6.29039C14.9912 6.58413 14.8072 6.76462 14.4957 6.76108C14.1843 6.754 14.0215 6.56997 13.9932 6.2727C13.9755 6.10283 13.9932 5.92588 13.9932 5.75247V5.74893Z" fill="#0C3E9F"/>
<path d="M15.0265 9.6419C15.0265 9.81531 15.0406 9.98872 15.023 10.1621C14.9911 10.4594 14.8248 10.6434 14.5133 10.647C14.2054 10.647 14.0214 10.4665 14.0002 10.1727C13.9754 9.84008 13.979 9.50388 14.0002 9.17121C14.0179 8.85271 14.2338 8.65452 14.5275 8.66868C14.8389 8.68284 14.9982 8.86686 15.0265 9.16414C15.0442 9.32339 15.0265 9.48618 15.0265 9.64544V9.6419Z" fill="#0C3E9F"/>
<path d="M16.3643 28.4549C16.3643 28.2815 16.3466 28.1081 16.3679 27.9382C16.3997 27.6516 16.5802 27.4958 16.8669 27.4958C17.1358 27.4958 17.334 27.6374 17.3552 27.9064C17.3835 28.285 17.3835 28.6708 17.3552 29.053C17.334 29.3432 17.1217 29.4918 16.8421 29.4812C16.566 29.4706 16.382 29.3078 16.3608 29.0141C16.3466 28.83 16.3608 28.6425 16.3608 28.4584L16.3643 28.4549Z" fill="#0C3E9F"/>
<path d="M16.3678 24.5799C16.3678 24.3958 16.3466 24.2083 16.3714 24.0242C16.4068 23.7553 16.5873 23.6137 16.8562 23.6102C17.1252 23.6066 17.3304 23.7411 17.3517 24.0101C17.3835 24.4029 17.38 24.7993 17.3517 25.1921C17.3304 25.4646 17.1146 25.5991 16.8562 25.592C16.5943 25.5849 16.4068 25.4434 16.3714 25.1709C16.3466 24.9762 16.3678 24.7745 16.3678 24.5799Z" fill="#0C3E9F"/>
<path d="M16.3643 20.7117C16.3643 20.5277 16.3466 20.3401 16.3679 20.1561C16.3962 19.8871 16.5661 19.735 16.8386 19.7243C17.1252 19.7102 17.334 19.8553 17.3552 20.1419C17.3836 20.5206 17.3836 20.9099 17.3552 21.2886C17.334 21.5788 17.1181 21.7203 16.835 21.7062C16.5731 21.692 16.3926 21.5434 16.3679 21.2709C16.3502 21.0868 16.3679 20.8993 16.3679 20.7152L16.3643 20.7117Z" fill="#0C3E9F"/>
<path d="M17.3656 16.8331C17.3656 17.0171 17.3833 17.2047 17.3621 17.3887C17.3267 17.6789 17.1356 17.8275 16.8525 17.8169C16.5694 17.8098 16.3818 17.647 16.3677 17.3568C16.35 16.9994 16.3464 16.6384 16.3677 16.2845C16.3854 15.9943 16.5765 15.8386 16.8631 15.8386C17.1498 15.8386 17.3303 15.9943 17.3656 16.281C17.3869 16.465 17.3692 16.6526 17.3692 16.8366L17.3656 16.8331Z" fill="#0C3E9F"/>
<path d="M16.3643 12.9118C16.3643 12.7384 16.3502 12.565 16.3643 12.3916C16.3962 12.1014 16.5767 11.9492 16.8633 11.9492C17.1323 11.9492 17.334 12.0872 17.3517 12.3562C17.38 12.749 17.38 13.1489 17.3482 13.5382C17.3234 13.8072 17.1111 13.9381 16.8456 13.9275C16.5802 13.9169 16.3997 13.7718 16.3679 13.4993C16.3466 13.3046 16.3643 13.1029 16.3643 12.9083V12.9118Z" fill="#0C3E9F"/>
<path d="M16.3642 5.14748C16.3642 4.97407 16.35 4.80066 16.3642 4.63079C16.3925 4.3406 16.573 4.18488 16.8561 4.1778C17.1215 4.17426 17.3303 4.30874 17.3516 4.58125C17.3799 4.97407 17.3834 5.37044 17.3516 5.76326C17.3303 6.03222 17.1215 6.1667 16.8526 6.15963C16.5836 6.15255 16.4031 6.01099 16.3713 5.74203C16.3465 5.54738 16.3677 5.3492 16.3677 5.15102C16.3677 5.15102 16.3677 5.15102 16.3642 5.15102V5.14748Z" fill="#0C3E9F"/>
<path d="M17.3727 9.06147C17.3727 9.23488 17.3869 9.40829 17.3727 9.57816C17.3409 9.88251 17.1568 10.0488 16.8525 10.0418C16.5658 10.0347 16.3853 9.86835 16.3712 9.5817C16.3535 9.22426 16.3535 8.86328 16.3712 8.50939C16.3889 8.21919 16.5835 8.06702 16.8666 8.06348C17.1498 8.06348 17.3338 8.21919 17.3656 8.50585C17.3869 8.68987 17.3692 8.87744 17.3692 9.06147H17.3727Z" fill="#0C3E9F"/>
<path d="M10.394 24.5162C10.5674 24.5162 10.7408 24.5055 10.9142 24.5162C11.2327 24.5374 11.4309 24.7179 11.4309 25.0329C11.4309 25.3337 11.2398 25.5212 10.9425 25.5389C10.5603 25.5602 10.1745 25.5602 9.79234 25.5389C9.49506 25.5212 9.31104 25.3266 9.31104 25.0258C9.31104 24.7285 9.49506 24.5445 9.79587 24.5162C9.99052 24.4985 10.1922 24.5162 10.3904 24.5162H10.394Z" fill="#0C3E9F"/>
<path d="M10.394 19.6678C10.578 19.6678 10.7656 19.6501 10.9496 19.6713C11.2469 19.7032 11.4344 19.8872 11.4309 20.1845C11.4309 20.4817 11.2433 20.6764 10.9425 20.6905C10.5603 20.7118 10.1745 20.7118 9.79234 20.6905C9.49152 20.6728 9.31104 20.4747 9.31104 20.1774C9.31104 19.8801 9.4986 19.6961 9.79587 19.6678C9.99052 19.6501 10.1922 19.6678 10.3904 19.6678H10.394Z" fill="#0C3E9F"/>
<path d="M10.3694 30.3944C10.1712 30.3944 9.96945 30.4156 9.77835 30.3909C9.48107 30.3519 9.30058 30.1608 9.31474 29.86C9.3289 29.5663 9.51292 29.3787 9.81727 29.3716C10.1889 29.361 10.5605 29.3575 10.9285 29.3716C11.2329 29.3823 11.4169 29.5698 11.4275 29.8671C11.4381 30.1679 11.2541 30.3555 10.9604 30.3944C10.7657 30.4192 10.564 30.3979 10.3694 30.3979V30.3944Z" fill="#0C3E9F"/>
<path d="M7.38945 24.5161C7.56286 24.5161 7.73981 24.5055 7.91322 24.5161C8.21403 24.5373 8.39805 24.7036 8.41929 25.0115C8.43698 25.3017 8.23526 25.5282 7.91675 25.5459C7.55578 25.5636 7.1948 25.5636 6.83383 25.5459C6.51886 25.5318 6.32068 25.3583 6.30652 25.0292C6.2959 24.7496 6.51532 24.5338 6.83029 24.5125C7.01785 24.5019 7.20188 24.5125 7.38945 24.5125V24.5161Z" fill="#0C3E9F"/>
<path d="M7.35064 20.6975C7.16307 20.6975 6.97551 20.7152 6.79148 20.6939C6.49421 20.6621 6.30664 20.4887 6.30664 20.1808C6.30664 19.8729 6.49775 19.6889 6.79502 19.6712C7.18077 19.6464 7.56651 19.6464 7.95226 19.6712C8.25308 19.6924 8.42649 19.8906 8.41587 20.1985C8.40879 20.4887 8.23184 20.6585 7.94872 20.6904C7.75054 20.7116 7.55236 20.6939 7.35064 20.6939V20.6975Z" fill="#0C3E9F"/>
<path d="M4.3849 24.5197C4.57246 24.5197 4.76003 24.4985 4.94405 24.5232C5.22363 24.5586 5.39704 24.725 5.40412 25.0187C5.4112 25.3124 5.24133 25.5106 4.96883 25.5319C4.56184 25.5672 4.14778 25.5672 3.7408 25.5319C3.46476 25.5106 3.29489 25.3195 3.30197 25.0222C3.30905 24.7108 3.49308 24.5445 3.79035 24.5162C3.98853 24.4985 4.18671 24.5162 4.38843 24.5162L4.3849 24.5197Z" fill="#0C3E9F"/>
<path d="M4.34947 19.6677C4.54765 19.6677 4.74937 19.6464 4.94401 19.6712C5.22005 19.7101 5.40054 19.8764 5.40408 20.1702C5.40408 20.4816 5.22713 20.6692 4.92986 20.6904C4.54765 20.7187 4.15836 20.7152 3.77261 20.6904C3.47534 20.6692 3.29485 20.4852 3.29839 20.1737C3.30193 19.8588 3.49303 19.6995 3.79031 19.6677C3.97433 19.65 4.1619 19.6677 4.34947 19.6677Z" fill="#0C3E9F"/>
<path d="M7.34368 30.4015C7.17027 30.4015 6.99332 30.4156 6.81991 30.4015C6.50848 30.3732 6.3103 30.2068 6.29968 29.8777C6.28906 29.5946 6.51202 29.3823 6.83053 29.3716C7.1915 29.361 7.55248 29.3575 7.91345 29.3716C8.2178 29.3858 8.40183 29.5592 8.40891 29.8671C8.41599 30.175 8.2355 30.3555 7.93822 30.3909C7.74358 30.4156 7.54186 30.3944 7.34014 30.3944L7.34368 30.4015Z" fill="#0C3E9F"/>
<path d="M4.3704 29.368C4.54381 29.368 4.72076 29.3609 4.89417 29.368C5.19498 29.3857 5.38608 29.5449 5.40378 29.8528C5.42147 30.1643 5.23745 30.3625 4.94371 30.3837C4.54735 30.4155 4.14744 30.4155 3.75108 30.3837C3.45734 30.3589 3.28039 30.1607 3.29809 29.8493C3.31578 29.5379 3.50689 29.3822 3.81124 29.368C3.99881 29.3574 4.18283 29.368 4.3704 29.368Z" fill="#0C3E9F"/>
<path d="M10.3869 23.1075C10.1746 23.1075 9.96227 23.1252 9.75347 23.104C9.45973 23.0757 9.30756 22.8739 9.3111 22.5944C9.31463 22.3325 9.46327 22.1272 9.73931 22.1131C10.1604 22.0883 10.5851 22.0883 11.0063 22.1131C11.2823 22.1308 11.4274 22.336 11.4309 22.5979C11.4309 22.8775 11.2752 23.0721 10.985 23.104C10.7868 23.1252 10.5887 23.1075 10.3905 23.104L10.3869 23.1075Z" fill="#0C3E9F"/>
<path d="M4.34935 27.9596C4.15117 27.9596 3.94945 27.9737 3.75481 27.9596C3.46461 27.9313 3.30536 27.7543 3.30182 27.4676C3.29828 27.1775 3.45399 26.9828 3.74065 26.9651C4.14763 26.9403 4.56169 26.9403 4.96867 26.9651C5.25533 26.9828 5.41104 27.181 5.40397 27.4712C5.39689 27.7614 5.2341 27.9348 4.9439 27.9596C4.74572 27.9773 4.54754 27.9596 4.34935 27.9596Z" fill="#0C3E9F"/>
<path d="M4.31409 18.2556C4.11591 18.2556 3.91419 18.2769 3.71955 18.2521C3.42935 18.2132 3.28779 18.0221 3.29841 17.7319C3.30902 17.4594 3.4612 17.2753 3.7337 17.2612C4.14068 17.2399 4.55474 17.2364 4.96172 17.2612C5.25192 17.2789 5.40763 17.4735 5.4041 17.7637C5.4041 18.0539 5.23422 18.2309 4.94757 18.2556C4.73877 18.2769 4.52643 18.2592 4.31409 18.2592V18.2556Z" fill="#0C3E9F"/>
<path d="M10.3796 17.2612C10.592 17.2612 10.8043 17.2399 11.0131 17.2647C11.2856 17.2966 11.4307 17.4948 11.4343 17.7531C11.4343 18.015 11.2927 18.2273 11.0202 18.245C10.5884 18.2733 10.1496 18.2733 9.71786 18.245C9.44535 18.2238 9.30734 18.0044 9.31795 17.7425C9.32503 17.4841 9.47367 17.2895 9.74971 17.2612C9.95851 17.2399 10.1708 17.2576 10.3832 17.2576L10.3796 17.2612Z" fill="#0C3E9F"/>
<path d="M4.34947 23.1111C4.15129 23.1111 3.94957 23.1252 3.75493 23.1111C3.46473 23.0863 3.30548 22.9093 3.2984 22.6191C3.29486 22.3289 3.44704 22.1308 3.73723 22.1131C4.14421 22.0883 4.55827 22.0883 4.96526 22.1131C5.25191 22.1308 5.40763 22.3289 5.40409 22.6191C5.40055 22.9093 5.23422 23.0827 4.94756 23.1111C4.74938 23.1287 4.5512 23.1111 4.35301 23.1146L4.34947 23.1111Z" fill="#0C3E9F"/>
<path d="M10.3479 27.956C10.1497 27.956 9.94797 27.9702 9.75333 27.9525C9.47729 27.9242 9.32511 27.7366 9.3145 27.4783C9.30388 27.1987 9.45252 26.9828 9.74625 26.9651C10.1674 26.9403 10.5921 26.9403 11.0132 26.9651C11.2892 26.9828 11.4343 27.1916 11.4343 27.45C11.4343 27.726 11.2786 27.9242 10.9849 27.9525C10.7761 27.9737 10.5638 27.956 10.3514 27.9525L10.3479 27.956Z" fill="#0C3E9F"/>
<path d="M7.35741 18.2625C7.15923 18.2625 6.9575 18.2767 6.76286 18.2625C6.47266 18.2342 6.30987 18.0573 6.30279 17.7706C6.29925 17.484 6.45497 17.2822 6.74516 17.2681C7.15215 17.2433 7.56621 17.2433 7.97319 17.2681C8.26338 17.2858 8.41556 17.4875 8.41202 17.7742C8.41202 18.0396 8.26338 18.2272 7.99088 18.259C7.78208 18.2838 7.56975 18.2625 7.35741 18.2625C7.35741 18.2625 7.35741 18.2625 7.35741 18.2661V18.2625Z" fill="#0C3E9F"/>
<path d="M7.35418 23.1076C7.15599 23.1076 6.95427 23.1217 6.75963 23.104C6.46943 23.0757 6.30664 22.8917 6.30664 22.6086C6.30664 22.3219 6.46589 22.1237 6.75609 22.1096C7.16307 22.0883 7.57713 22.0848 7.98411 22.1096C8.27431 22.1273 8.42649 22.3361 8.41587 22.6192C8.40879 22.9058 8.24246 23.0828 7.95226 23.104C7.75408 23.1182 7.5559 23.104 7.35772 23.104L7.35418 23.1076Z" fill="#0C3E9F"/>
<path d="M7.3751 27.9559C7.16277 27.9559 6.95043 27.9736 6.74163 27.9524C6.45143 27.9205 6.29926 27.7294 6.30279 27.4428C6.30633 27.1773 6.45851 26.9791 6.72747 26.9615C7.14861 26.9367 7.57329 26.9367 7.99088 26.9615C8.26339 26.9791 8.40848 27.1809 8.40848 27.4463C8.40848 27.7294 8.25631 27.9205 7.96611 27.9488C7.76793 27.9701 7.56975 27.9524 7.37156 27.9488L7.3751 27.9559Z" fill="#0C3E9F"/>
<path d="M31.688 27.1596C31.688 27.0499 31.642 26.9013 31.6987 26.8341C31.8225 26.6713 31.9889 26.4483 32.1516 26.4341C32.3144 26.42 32.594 26.5969 32.6471 26.7527C32.732 27.0039 32.7143 27.3118 32.6719 27.5843C32.6294 27.8427 32.4171 27.9701 32.1446 27.9453C31.8756 27.9205 31.7234 27.7542 31.6845 27.4923C31.6703 27.3826 31.6845 27.2693 31.6845 27.1596C31.6845 27.1596 31.688 27.1596 31.6916 27.1596H31.688Z" fill="#0C3E9F"/>
<path d="M31.6281 24.6011C31.6953 24.3959 31.7165 24.1906 31.8192 24.0384C31.9819 23.7942 32.3217 23.7907 32.5376 23.9889C32.7959 24.226 32.7959 25.0258 32.5376 25.2665C32.3217 25.4646 31.9784 25.4682 31.8192 25.2204C31.7059 25.047 31.6882 24.8135 31.6245 24.6011H31.6281Z" fill="#0C3E9F"/>
<path d="M31.6845 22.0424C31.6845 21.9433 31.6704 21.8442 31.6845 21.7451C31.7341 21.4266 32.0526 21.2214 32.3428 21.324C32.6683 21.4408 32.7214 21.7133 32.7144 22.0176C32.7073 22.3432 32.7391 22.6794 32.3463 22.821C32.0526 22.9272 31.7341 22.7325 31.6881 22.4105C31.6704 22.2901 31.6881 22.1627 31.6881 22.0389L31.6845 22.0424Z" fill="#0C3E9F"/>
<path d="M32.7318 19.5757C32.7141 19.696 32.7105 19.8376 32.6681 19.9614C32.5548 20.2835 32.1903 20.4003 31.9107 20.2162C31.5568 19.9827 31.5745 19.0484 31.9355 18.8325C32.2221 18.6626 32.576 18.7936 32.6787 19.1227C32.7211 19.2607 32.7141 19.4129 32.7318 19.5757Z" fill="#0C3E9F"/>
<path d="M32.732 29.7502C32.7143 29.8847 32.7143 30.0227 32.6754 30.1501C32.594 30.4049 32.3852 30.5641 32.141 30.4827C31.964 30.4226 31.7942 30.235 31.7057 30.0651C31.6349 29.9271 31.6809 29.7254 31.6845 29.5555C31.6951 29.1839 31.8897 28.9645 32.2011 28.9681C32.502 28.9716 32.6931 29.1804 32.7178 29.5308C32.7214 29.6051 32.7178 29.6794 32.7178 29.7537C32.7214 29.7537 32.7285 29.7537 32.732 29.7537V29.7502Z" fill="#0C3E9F"/>
<path d="M32.7636 16.9991C32.6999 17.2009 32.6716 17.4061 32.5725 17.5618C32.4203 17.7954 32.0523 17.8025 31.8435 17.6114C31.5958 17.3814 31.6028 16.5497 31.8541 16.3303C32.07 16.1427 32.4345 16.1604 32.5796 16.4011C32.6822 16.5709 32.7035 16.7903 32.7636 16.9991Z" fill="#0C3E9F"/>
<path d="M30.9729 18.4291C30.9658 18.5529 30.9693 18.6768 30.9446 18.7971C30.8915 19.0625 30.7075 19.2041 30.4456 19.2006C30.1837 19.197 29.9961 19.0519 29.9607 18.783C29.936 18.5883 29.943 18.3901 29.9466 18.1919C29.9537 17.8699 30.1271 17.6823 30.442 17.6576C30.7287 17.6328 30.941 17.8664 30.9623 18.2061C30.9658 18.2804 30.9623 18.3547 30.9623 18.4291C30.9623 18.4291 30.9693 18.4291 30.9729 18.4291Z" fill="#0C3E9F"/>
<path d="M30.9624 15.8634C30.9624 15.9483 30.9624 16.0368 30.9624 16.1217C30.9482 16.4437 30.7784 16.6313 30.4634 16.6561C30.1767 16.6809 29.9644 16.4437 29.9467 16.104C29.9396 15.9554 29.9396 15.8067 29.9467 15.6581C29.9644 15.3113 30.1661 15.0883 30.4634 15.1095C30.7855 15.1308 30.9482 15.3219 30.9624 15.6404C30.9624 15.7147 30.9624 15.789 30.9624 15.8634Z" fill="#0C3E9F"/>
<path d="M30.9693 20.9843C30.9623 21.0975 30.9693 21.2108 30.9516 21.3205C30.9056 21.6071 30.7251 21.7593 30.4349 21.7522C30.166 21.7451 29.989 21.593 29.9572 21.3205C29.9359 21.1364 29.943 20.9489 29.943 20.7613C29.943 20.4357 30.1129 20.2446 30.4314 20.2128C30.7216 20.1845 30.9375 20.418 30.9622 20.7613C30.9658 20.8356 30.9622 20.9099 30.9622 20.9843H30.9693Z" fill="#0C3E9F"/>
<path d="M29.9324 28.6212C29.9431 28.4974 29.9041 28.3346 29.9714 28.2567C30.1023 28.101 30.2899 27.8958 30.4527 27.8958C30.6155 27.8958 30.8419 28.0869 30.9269 28.2567C31.0118 28.4301 30.9658 28.6708 30.9623 28.8796C30.9552 29.2052 30.7747 29.3892 30.4562 29.414C30.1802 29.4317 29.9714 29.2016 29.9466 28.8831C29.9395 28.7982 29.9466 28.7097 29.9466 28.6212C29.9466 28.6212 29.9395 28.6212 29.936 28.6212H29.9324Z" fill="#0C3E9F"/>
<path d="M29.936 26.0662C29.9431 25.9565 29.936 25.8397 29.9573 25.7335C30.0068 25.4646 30.1838 25.323 30.4527 25.323C30.7217 25.323 30.9057 25.4646 30.9446 25.7335C30.973 25.9282 30.9694 26.1299 30.9588 26.3281C30.9446 26.6501 30.7748 26.8483 30.4492 26.8483C30.1236 26.8483 29.9573 26.6501 29.9431 26.3245C29.9396 26.2396 29.9431 26.1511 29.9431 26.0626C29.9431 26.0626 29.9396 26.0626 29.936 26.0626V26.0662Z" fill="#0C3E9F"/>
<path d="M29.9326 23.5217C29.9432 23.3872 29.9078 23.2067 29.9786 23.1253C30.1131 22.9767 30.3184 22.7891 30.4812 22.7997C30.6439 22.8104 30.8598 23.0156 30.9306 23.189C31.0085 23.3801 30.9695 23.6279 30.9518 23.8508C30.9271 24.1375 30.7466 24.3038 30.4564 24.3038C30.1485 24.3038 29.9751 24.1304 29.9468 23.8261C29.9362 23.727 29.9468 23.6279 29.9468 23.5288H29.9326V23.5217Z" fill="#0C3E9F"/>
</svg>
