<svg width="32" height="27" viewBox="0 0 32 27" fill="none" xmlns="http://www.w3.org/2000/svg">
<path d="M31.9978 16.3815C31.8319 16.8596 31.6269 17.3338 31.1543 17.5647C30.8193 17.7282 30.4289 17.8636 30.0634 17.8644C24.5374 17.8832 19.0107 17.8792 13.4846 17.8753C12.3242 17.8745 11.5644 17.1249 11.5527 15.9668C11.5394 14.7281 11.5401 13.4902 11.5527 12.2515C11.5636 11.0918 12.3148 10.3352 13.4776 10.3344C19.0036 10.3273 24.5304 10.3289 30.0564 10.3336C31.015 10.3336 31.6339 10.8039 31.9391 11.7171C31.9516 11.7538 31.9782 11.7867 31.9986 11.8211V16.3823L31.9978 16.3815ZM21.7768 16.9402C24.5257 16.9402 27.2738 16.941 30.0228 16.9402C30.7145 16.9402 31.0588 16.5952 31.0596 15.905C31.0611 14.7179 31.0604 13.5309 31.0596 12.3438C31.0596 11.6091 30.7254 11.2695 29.9954 11.2687C24.5085 11.2679 19.0216 11.2671 13.5347 11.2687C12.818 11.2687 12.4877 11.6028 12.4862 12.3227C12.4838 13.4996 12.4846 14.6757 12.4862 15.8526C12.487 16.628 12.8054 16.9395 13.5934 16.9395C16.3212 16.9395 19.049 16.9395 21.7768 16.9395V16.9402Z" fill="#007EF2"/>
<path d="M31.9981 7.44761C31.8611 7.8772 31.6835 8.27863 31.3157 8.57285C30.9284 8.88272 30.4832 8.98209 30.0043 8.98209C24.5182 8.98209 19.0321 8.98444 13.546 8.98053C12.283 8.97974 11.5537 8.24028 11.5498 6.97811C11.5459 5.80202 11.5459 4.62514 11.5498 3.44904C11.5537 2.17279 12.2893 1.44741 13.5749 1.44663C15.8653 1.44585 18.1557 1.44663 20.4453 1.44663C20.5392 1.44663 20.6346 1.43959 20.7254 1.45524C20.9687 1.49749 21.1213 1.63756 21.1315 1.89344C21.1417 2.1501 21.0008 2.30503 20.7606 2.36137C20.6511 2.38719 20.5337 2.38171 20.4194 2.38171C18.1291 2.3825 15.8387 2.38171 13.5491 2.3825C12.8057 2.3825 12.488 2.69941 12.4872 3.44591C12.4849 4.63296 12.4849 5.81923 12.4872 7.00628C12.4888 7.71053 12.8135 8.04153 13.5186 8.04153C19.0148 8.04388 24.5111 8.04388 30.0082 8.04153C30.7281 8.04153 31.0599 7.70427 31.0606 6.99063C31.0614 5.79341 31.0622 4.59619 31.0606 3.39896C31.0591 2.72288 30.7187 2.3825 30.0426 2.38171C27.7632 2.38015 25.483 2.38171 23.2036 2.38171C23.1206 2.38171 23.0369 2.38406 22.9539 2.38171C22.6128 2.36841 22.4023 2.18844 22.4015 1.91143C22.4015 1.63286 22.6104 1.44898 22.9532 1.44741C23.9008 1.44272 24.8476 1.44585 25.7952 1.44585C27.0965 1.44585 28.3978 1.44585 29.6991 1.44585C31.0794 1.44585 31.4761 1.70485 31.9996 2.94824V7.44683L31.9981 7.44761Z" fill="#007EF2"/>
<path d="M31.9976 25.2534C31.8865 25.4983 31.8082 25.7651 31.6588 25.9826C31.2761 26.5398 30.7213 26.7691 30.0484 26.7659C28.4865 26.7573 26.9246 26.7636 25.3628 26.7636C24.6648 26.7636 23.9676 26.7636 23.2696 26.7636C22.6279 26.7636 22.4049 26.6462 22.4018 26.305C22.3987 25.9568 22.6405 25.8261 23.2915 25.8261C25.3847 25.8261 27.4771 25.8261 29.5703 25.8261C29.7682 25.8261 29.9662 25.8301 30.1634 25.8238C30.6861 25.8066 31.0515 25.4576 31.0555 24.9372C31.0648 23.6461 31.0648 22.355 31.0555 21.0639C31.0523 20.556 30.6979 20.2086 30.1924 20.1789C30.1196 20.1742 30.0468 20.1749 29.974 20.1749C24.5075 20.1749 19.041 20.1749 13.5744 20.1749C13.4915 20.1749 13.4078 20.1749 13.3248 20.1804C12.8428 20.2141 12.4993 20.5388 12.4938 21.024C12.4805 22.3354 12.4789 23.6477 12.4922 24.9599C12.4977 25.5116 12.8647 25.8246 13.461 25.8254C15.7725 25.8285 18.084 25.8254 20.3955 25.8285C20.5395 25.8285 20.6905 25.8332 20.8258 25.8754C21.0528 25.9459 21.1905 26.1376 21.1138 26.3551C21.0582 26.5116 20.8822 26.6345 20.7398 26.7479C20.6873 26.7894 20.5786 26.7644 20.4948 26.7644C18.1622 26.7644 15.8304 26.7675 13.4977 26.7644C12.5165 26.7628 11.8177 26.2503 11.6017 25.3723C11.5548 25.1829 11.5501 24.9803 11.5493 24.7839C11.5446 23.5968 11.5431 22.4098 11.5478 21.2227C11.5525 19.977 12.2833 19.2406 13.5275 19.2399C19.0151 19.2367 24.502 19.2375 29.9897 19.2399C31.0539 19.2399 31.532 19.6068 31.9952 20.7571V25.2557L31.9976 25.2534Z" fill="#007EF2"/>
<path d="M6.91702 10.6351C7.21437 10.2892 7.55867 9.87213 7.9194 9.47071C8.37716 8.96208 8.95151 8.76254 9.61038 8.96678C10.252 9.16553 10.6308 9.62721 10.7262 10.2978C10.8006 10.819 10.5995 11.2517 10.2661 11.639C9.47814 12.5538 8.70503 13.481 7.90375 14.384C7.64552 14.6751 7.50859 14.9662 7.54615 15.3582C7.57197 15.6352 7.55554 15.9208 7.5258 16.1986C7.42016 17.176 6.73 17.8481 5.74875 17.8685C4.43806 17.8959 3.12581 17.8974 1.81513 17.8685C0.757187 17.845 0.0224207 17.0563 0.0138132 15.985C0.00442322 14.7463 0.00755321 13.5076 0.0130307 12.2689C0.0177257 11.132 0.7611 10.3549 1.89729 10.3361C3.15633 10.3158 4.41693 10.3095 5.67519 10.3448C6.06488 10.3557 6.44987 10.52 6.9178 10.6343L6.91702 10.6351ZM6.25659 11.4074C6.08053 11.3659 5.96628 11.3158 5.85125 11.3143C4.51005 11.2963 3.16885 11.272 1.82765 11.2783C1.32372 11.2806 0.961419 11.6414 0.955942 12.1226C0.941857 13.4435 0.942639 14.7651 0.955942 16.0867C0.960637 16.5429 1.30728 16.9209 1.76113 16.9279C3.10312 16.9483 4.4451 16.9498 5.78709 16.9279C6.29963 16.9193 6.64314 16.4678 6.56646 16.0061C6.47178 16.0938 6.37318 16.183 6.27693 16.2761C5.54295 16.985 4.54135 16.9655 3.89344 16.183C3.32378 15.4952 2.77369 14.7854 2.26897 14.0491C1.7893 13.3488 2.01545 12.4074 2.71187 11.9278C3.40516 11.4504 4.31051 11.5764 4.84105 12.2251C4.95138 12.3597 5.06171 12.4935 5.19239 12.6523C5.54608 12.2384 5.88021 11.8479 6.25581 11.4082L6.25659 11.4074ZM5.12901 15.9341C5.3575 15.7659 5.58207 15.6548 5.73466 15.4795C6.99605 14.0249 8.24492 12.5584 9.49535 11.0944C9.58299 10.9919 9.67141 10.8855 9.7301 10.7657C9.86313 10.4927 9.81226 10.2321 9.59864 10.0232C9.39441 9.82361 9.13619 9.76884 8.88031 9.90186C8.73789 9.9762 8.61582 10.103 8.50862 10.2274C7.5438 11.3471 6.58602 12.4732 5.62276 13.5945C5.3082 13.9607 5.01946 13.9552 4.72211 13.5827C4.54057 13.355 4.37077 13.1172 4.18688 12.8918C3.90361 12.5436 3.54288 12.4802 3.23223 12.7142C2.91688 12.9513 2.86837 13.3198 3.13598 13.6774C3.6094 14.3112 4.08907 14.9404 4.58674 15.5546C4.70646 15.7025 4.90834 15.7847 5.12901 15.9357V15.9341Z" fill="#007EF2"/>
<path d="M6.89744 1.75198C7.25347 1.34743 7.62672 0.869323 8.05553 0.447556C8.90141 -0.38424 10.3342 -3.32827e-05 10.6714 1.13303C10.8459 1.7199 10.6926 2.24026 10.3005 2.69881C9.71834 3.3788 9.16433 4.08461 8.54772 4.73174C7.89121 5.42112 7.44831 6.11128 7.51483 7.15592C7.58212 8.2209 6.83562 8.92358 5.77377 8.9588C4.41222 9.00418 3.04754 8.99479 1.68599 8.94784C0.762644 8.91576 0.0521348 8.19117 0.0278773 7.27251C-0.00890015 5.90001 -0.00968265 4.52438 0.0278773 3.15187C0.0536998 2.20035 0.824461 1.47028 1.77598 1.45463C3.11797 1.43194 4.46152 1.43037 5.8035 1.46246C6.15093 1.47106 6.49445 1.6393 6.89822 1.75042L6.89744 1.75198ZM6.57192 7.07767C6.48193 7.17392 6.40837 7.2553 6.33169 7.33355C5.60083 8.09179 4.54994 8.08162 3.87542 7.27329C3.33628 6.62695 2.82375 5.95557 2.3339 5.27088C1.8018 4.52751 1.96456 3.58851 2.6782 3.05484C3.35428 2.55013 4.31832 2.6855 4.88485 3.36628C4.98266 3.48365 5.07421 3.60494 5.19237 3.75283C5.54997 3.33654 5.8841 2.94764 6.291 2.47423C5.9334 2.43745 5.67048 2.38894 5.40834 2.38659C4.26354 2.37798 3.11953 2.38111 1.97473 2.38346C1.28301 2.38424 0.948878 2.72385 0.948096 3.42262C0.946531 4.59871 0.947313 5.77403 0.948096 6.95012C0.948096 7.7248 1.26736 8.04171 2.05142 8.04327C3.20639 8.04484 4.36136 8.04484 5.51632 8.04249C5.65091 8.04249 5.78863 8.03701 5.92009 8.01119C6.34734 7.9259 6.61261 7.55499 6.5727 7.07689L6.57192 7.07767ZM3.59138 3.58772C3.37775 3.76457 3.16492 3.88038 3.04128 4.05801C2.87617 4.2951 2.95834 4.55724 3.1297 4.78103C3.58512 5.37573 4.04131 5.97043 4.49908 6.56357C4.89502 7.07689 5.31131 7.08706 5.73229 6.59487C6.93734 5.18793 8.14317 3.78178 9.34666 2.37329C9.4742 2.22383 9.60723 2.07281 9.70582 1.90457C9.86858 1.62756 9.80911 1.31535 9.58219 1.11033C9.349 0.89984 9.01409 0.884973 8.75196 1.08451C8.65414 1.15963 8.56963 1.25431 8.48904 1.34899C7.53282 2.46249 6.58131 3.57912 5.62353 4.69027C5.29096 5.07604 5.02178 5.06743 4.70331 4.66992C4.52099 4.44221 4.3637 4.1926 4.16182 3.98523C4.02019 3.83891 3.823 3.74579 3.59059 3.58851L3.59138 3.58772Z" fill="#007EF2"/>
<path d="M3.75785 26.7637C2.95657 26.7637 2.15529 26.7668 1.35401 26.7629C0.499523 26.759 0.0120265 26.2777 0.0104615 25.4326C0.00733154 23.809 0.00654904 22.1861 0.0104615 20.5624C0.0120265 19.7337 0.497176 19.2431 1.33132 19.24C2.96518 19.2329 4.59904 19.2321 6.23289 19.24C7.04982 19.2439 7.54123 19.7235 7.54749 20.5397C7.55923 22.1837 7.56001 23.8277 7.54749 25.4718C7.54123 26.2856 7.042 26.7574 6.22585 26.7629C5.40344 26.7684 4.58182 26.7637 3.75941 26.7637H3.75785ZM3.7868 25.8262C4.58808 25.8262 5.39014 25.82 6.19142 25.8294C6.48173 25.8333 6.61397 25.7183 6.61397 25.4272C6.61162 23.8137 6.61084 22.2001 6.61397 20.5866C6.61397 20.3018 6.49894 20.1703 6.20316 20.1711C4.58965 20.1766 2.97613 20.1719 1.36262 20.175C1.01597 20.175 0.947113 20.2502 0.94633 20.6062C0.944765 22.1986 0.944765 23.7917 0.94633 25.3841C0.94633 25.7558 1.01441 25.8239 1.3814 25.8247C2.18268 25.827 2.98474 25.8247 3.78602 25.8247L3.7868 25.8262Z" fill="#007EF2"/>
<path d="M21.7754 5.6864C19.5179 5.6864 17.2604 5.6864 15.0029 5.6864C14.5076 5.6864 14.2665 5.52598 14.2736 5.20281C14.2806 4.88903 14.5013 4.74896 14.9904 4.74896C19.5054 4.74896 24.0204 4.74896 28.5354 4.74896C28.6497 4.74896 28.7929 4.71453 28.8719 4.76931C29.019 4.87103 29.1872 5.0064 29.2404 5.16369C29.314 5.382 29.1763 5.57059 28.947 5.63945C28.8202 5.67779 28.681 5.68327 28.5472 5.68405C26.2896 5.6864 24.0321 5.68561 21.7746 5.68561L21.7754 5.6864Z" fill="#007EF2"/>
<path d="M21.7762 23.4667C19.5289 23.4667 17.2823 23.4667 15.035 23.4667C14.5006 23.4667 14.2658 23.3196 14.2736 22.9918C14.2815 22.6662 14.5123 22.5293 15.053 22.5293C19.5367 22.5293 24.0204 22.5293 28.5034 22.5301C28.638 22.5301 28.7749 22.534 28.9056 22.5614C29.1403 22.6107 29.2585 22.7719 29.2546 23.0097C29.2507 23.2484 29.1231 23.401 28.8884 23.4448C28.7671 23.4675 28.6403 23.4659 28.5159 23.4659C26.2686 23.4667 24.022 23.4667 21.7747 23.4667H21.7762Z" fill="#007EF2"/>
<path d="M21.7522 14.5731C19.5048 14.5731 17.2575 14.5731 15.0102 14.5731C14.9061 14.5731 14.8005 14.5794 14.6987 14.5661C14.4335 14.5301 14.2801 14.3618 14.2793 14.1044C14.2777 13.861 14.4264 13.6975 14.6737 13.6513C14.7746 13.6325 14.8811 13.6372 14.9843 13.6372C19.5103 13.6372 24.0355 13.6372 28.5615 13.6372C28.6757 13.6372 28.7939 13.6318 28.9019 13.6607C29.1413 13.7233 29.2728 13.8845 29.2563 14.1404C29.2407 14.3814 29.0951 14.5183 28.8674 14.5614C28.7563 14.5825 28.6397 14.5731 28.5247 14.5731C26.2672 14.5731 24.0097 14.5731 21.7514 14.5731H21.7522Z" fill="#007EF2"/>
</svg>
