<svg width="31" height="35" viewBox="0 0 31 35" fill="none" xmlns="http://www.w3.org/2000/svg">
<path d="M6.98856 30.1024C7.68491 26.6311 9.6482 24.324 12.8854 23.1313C10.0138 20.8977 10.7055 17.4169 12.3032 15.8733C14.0895 14.1471 16.9028 14.1163 18.6914 15.8852C19.7301 16.9119 20.2006 18.1852 20.0748 19.6529C19.9491 21.1016 19.2527 22.2398 18.0813 23.1171C21.3604 24.3216 23.3144 26.6358 24.0224 30.1379C24.4299 29.7325 24.8352 29.3768 25.1892 28.9761C28.0328 25.7538 29.1274 21.9884 28.5428 17.7062C28.4823 17.2604 28.6569 16.9593 29.0109 16.9071C29.3486 16.8573 29.6025 17.0755 29.6654 17.5165C30.2825 21.7442 29.3323 25.5736 26.7332 28.9311C24.5138 31.8001 21.584 33.5192 18.0603 34.1973C17.5386 34.2969 17.18 34.0455 17.2219 33.6022C17.2568 33.2323 17.5107 33.1042 17.8321 33.0449C19.5345 32.7391 21.1112 32.106 22.5854 31.1836C22.8742 31.0034 22.9254 30.8113 22.8928 30.5031C22.5435 27.359 20.0515 24.6393 16.9797 24.0584C12.7294 23.2546 8.9076 25.9482 8.14837 30.2873C8.03658 30.9299 8.03425 30.9323 8.57457 31.2713C9.9859 32.151 11.5067 32.7343 13.1346 33.0426C13.293 33.0734 13.4676 33.1256 13.5911 33.2251C13.8007 33.3911 13.8426 33.6353 13.7331 33.8843C13.6004 34.1878 13.3419 34.2827 13.0484 34.2092C12.203 33.9958 11.3343 33.8393 10.5285 33.5192C5.53065 31.5322 2.48208 27.8356 1.38981 22.4911C1.06144 20.8811 1.06842 19.2498 1.31296 17.6232C1.32228 17.5639 1.33625 17.5046 1.34789 17.4454C1.42708 17.0684 1.67394 16.8621 1.99068 16.9095C2.32372 16.9569 2.51236 17.2533 2.4751 17.6374C2.40756 18.3393 2.30043 19.0435 2.30508 19.7454C2.32837 23.8118 3.81423 27.2215 6.7906 29.9435C6.84184 29.9909 6.90006 30.0336 6.98856 30.1048V30.1024ZM12.0586 19.2498C12.0633 21.1751 13.619 22.7496 15.5124 22.7448C17.4059 22.7401 18.95 21.1585 18.9453 19.2284C18.9406 17.3007 17.3872 15.7287 15.4915 15.7334C13.5981 15.7382 12.054 17.3197 12.0586 19.2498Z" fill="#307CBF"/>
<path d="M11.3929 12.1176C11.5466 11.2023 11.6747 10.2112 11.8889 9.24141C12.017 8.65812 11.9309 8.25503 11.4674 7.85194C10.7687 7.24493 10.1399 6.55494 9.47617 5.90288C9.27588 5.70608 9.11984 5.49742 9.21533 5.19866C9.31314 4.88804 9.55768 4.80506 9.85345 4.76238C10.9317 4.61299 12.0054 4.43753 13.0814 4.28815C13.291 4.2597 13.3911 4.16722 13.4773 3.98702C13.9454 3.00301 14.4298 2.02611 14.8956 1.03972C15.026 0.767045 15.189 0.567871 15.5104 0.567871C15.8318 0.567871 15.9879 0.783643 16.1159 1.05395C16.5771 2.02848 17.0568 2.99352 17.5203 3.96805C17.6111 4.16011 17.7159 4.25733 17.9395 4.28815C19.0178 4.43516 20.0914 4.61062 21.1674 4.76238C21.4469 4.80268 21.6821 4.88567 21.7846 5.17732C21.8964 5.49268 21.7287 5.70845 21.5214 5.91237C20.7482 6.67349 19.9703 7.43225 19.2134 8.21235C19.1016 8.32616 19.0248 8.55379 19.0481 8.71265C19.2064 9.77017 19.3997 10.8229 19.5767 11.8781C19.6233 12.1531 19.6862 12.44 19.437 12.6629C19.1925 12.8834 18.9386 12.8408 18.6754 12.6985C17.7252 12.1863 16.768 11.6884 15.8248 11.162C15.5803 11.0245 15.4033 11.0435 15.1681 11.1715C14.2132 11.7003 13.249 12.2124 12.2849 12.7198C11.8121 12.9688 11.3789 12.7009 11.3929 12.1199V12.1176ZM11.146 5.75587C11.7376 6.39607 12.3268 7.04813 12.9323 7.68596C13.1512 7.91596 13.2351 8.15307 13.1745 8.47554C13.0138 9.34574 12.8787 10.2183 12.7204 11.1644C13.3189 10.8443 13.8522 10.555 14.3902 10.2752C15.72 9.58759 15.2682 9.571 16.6237 10.2752C17.1593 10.555 17.6903 10.8419 18.2819 11.1573C18.1328 10.2563 18.021 9.42636 17.851 8.60833C17.7602 8.16967 17.851 7.84957 18.1864 7.57689C18.3075 7.47967 18.4169 7.36349 18.5241 7.24968C18.9829 6.75885 19.4393 6.26566 19.8981 5.77247C19.8376 5.76061 19.7491 5.73453 19.6583 5.72268C18.8781 5.60412 18.1002 5.47845 17.3177 5.37412C17.0103 5.33381 16.8263 5.17732 16.6959 4.8999C16.3605 4.18857 16.0111 3.48197 15.6641 2.77538C15.6199 2.68528 15.564 2.59992 15.4895 2.47188C15.0935 3.28517 14.7139 4.04156 14.3599 4.81217C14.2039 5.15361 13.9943 5.36464 13.61 5.38835C13.3375 5.40732 13.065 5.46423 12.7949 5.50691C12.222 5.59464 11.6467 5.68 11.146 5.75824V5.75587Z" fill="#307CBF"/>
<path d="M1.76502 14.5763C1.90243 13.7653 2.03984 12.9023 2.1982 12.0415C2.24478 11.7878 2.20519 11.6124 2.01422 11.4322C1.42966 10.8749 0.866055 10.294 0.29081 9.7297C0.0905217 9.5329 -0.0655166 9.32424 0.0276406 9.02548C0.123127 8.71249 0.379309 8.62476 0.668096 8.58445C1.47158 8.46827 2.27506 8.34023 3.08087 8.23827C3.29746 8.20981 3.41391 8.12208 3.50473 7.92528C3.85407 7.17838 4.22437 6.4457 4.57371 5.6988C4.69715 5.43324 4.8625 5.24829 5.16293 5.24829C5.46104 5.24829 5.63338 5.42138 5.75914 5.68932C6.11314 6.4457 6.47645 7.19972 6.85606 7.94188C6.91895 8.06518 7.08197 8.18847 7.21472 8.20981C8.0019 8.34734 8.79606 8.46115 9.5879 8.57497C9.89299 8.62002 10.1911 8.66744 10.3052 9.01599C10.4217 9.37166 10.1958 9.58269 9.97683 9.79846C9.43652 10.332 8.90785 10.8773 8.3559 11.399C8.14862 11.5958 8.08574 11.7807 8.14163 12.0676C8.29534 12.8406 8.40946 13.6231 8.54221 14.4008C8.59112 14.6877 8.60975 14.9628 8.33959 15.1596C8.07177 15.354 7.82257 15.2568 7.56872 15.1192C6.85141 14.7304 6.12944 14.3557 5.41679 13.9598C5.23979 13.8626 5.10471 13.8602 4.92771 13.9598C4.17314 14.3771 3.41158 14.7849 2.64536 15.1785C2.17957 15.418 1.7394 15.1358 1.76735 14.5786L1.76502 14.5763ZM5.16759 7.1191C4.91607 7.63838 4.67153 8.05806 4.50384 8.51095C4.28725 9.09898 3.9123 9.36455 3.29746 9.39063C2.82236 9.4096 2.35424 9.52578 1.89777 9.59692C2.33328 10.0617 2.73619 10.5122 3.16005 10.939C3.3976 11.1761 3.47446 11.425 3.40692 11.7594C3.28814 12.3545 3.2043 12.9568 3.09484 13.6183C3.64913 13.3243 4.14752 13.0872 4.61563 12.8003C4.99758 12.5656 5.33062 12.5608 5.71489 12.7979C6.18766 13.0872 6.69304 13.3243 7.23568 13.6112C7.13321 12.99 7.07498 12.4328 6.94456 11.8945C6.82812 11.425 6.97484 11.1121 7.30555 10.8038C7.7038 10.4292 8.06012 10.0095 8.44207 9.59929C7.85285 9.50919 7.26363 9.40249 6.67208 9.33372C6.31808 9.29342 6.11779 9.11084 5.9734 8.79785C5.72653 8.26198 5.46336 7.73322 5.16759 7.12384V7.1191Z" fill="#307CBF"/>
<path d="M22.4343 14.5931C22.5717 13.7774 22.7068 12.912 22.8675 12.0536C22.9187 11.7857 22.8675 11.6031 22.6695 11.4134C22.0919 10.8657 21.5376 10.2943 20.9694 9.73706C20.7621 9.53315 20.5967 9.31975 20.7062 9.00202C20.8157 8.68903 21.0788 8.62027 21.3606 8.57996C22.1641 8.46377 22.9676 8.33336 23.7711 8.23141C23.9807 8.20532 24.0808 8.11048 24.1647 7.93027C24.5233 7.17626 24.896 6.42936 25.2523 5.6706C25.3711 5.41452 25.5364 5.24854 25.8182 5.24143C26.1163 5.23431 26.2933 5.40266 26.4191 5.6706C26.7731 6.42699 27.148 7.17389 27.5044 7.93027C27.5882 8.11048 27.6907 8.19821 27.9003 8.22429C28.6944 8.32388 29.4839 8.45666 30.2758 8.57047C30.5692 8.61315 30.8487 8.66769 30.9651 8.99965C31.0816 9.33635 30.8883 9.54975 30.674 9.76078C30.1081 10.3204 29.5515 10.8894 28.9762 11.4372C28.7946 11.6102 28.7527 11.7762 28.7969 12.0157C28.946 12.8409 29.0973 13.666 29.2045 14.4959C29.2301 14.7022 29.1369 14.9772 29.0019 15.1385C28.8202 15.3566 28.55 15.2831 28.3102 15.1527C27.5719 14.7543 26.8266 14.3679 26.0954 13.96C25.9021 13.8509 25.76 13.8604 25.5737 13.9648C24.8284 14.3773 24.0785 14.7757 23.3216 15.1669C22.8535 15.4088 22.4087 15.1385 22.4296 14.5884L22.4343 14.5931ZM29.123 9.59717C28.5337 9.50707 27.9515 9.39799 27.3623 9.33397C26.9943 9.29367 26.787 9.10398 26.638 8.77913C26.3958 8.24563 26.1303 7.72162 25.8415 7.12647C25.5364 7.75007 25.2616 8.2978 25.0031 8.85264C24.8727 9.13006 24.6863 9.28418 24.3789 9.32449C23.7711 9.40274 23.1656 9.50707 22.5554 9.60191C23.0002 10.0714 23.4148 10.5219 23.8479 10.9558C24.0762 11.1834 24.1484 11.4253 24.0855 11.7454C23.969 12.3477 23.8782 12.957 23.7687 13.6233C24.3417 13.3174 24.8657 13.0566 25.3711 12.7602C25.6971 12.5705 25.9859 12.5682 26.3119 12.7579C26.8173 13.0495 27.3413 13.3151 27.9119 13.6186C27.8025 12.9594 27.7209 12.3595 27.5998 11.7691C27.5276 11.4182 27.6208 11.1668 27.8677 10.9226C28.2939 10.5029 28.6944 10.0572 29.1253 9.60191L29.123 9.59717Z" fill="#307CBF"/>
<path d="M16.0739 33.8371C16.0809 34.1525 15.8271 34.4251 15.5173 34.4323C15.2076 34.4394 14.9397 34.1809 14.9328 33.8656C14.9258 33.5478 15.1773 33.2775 15.4894 33.2704C15.7991 33.2633 16.0669 33.5217 16.0739 33.8371Z" fill="#307CBF"/>
</svg>
