<svg width="30" height="31" viewBox="0 0 30 31" fill="none" xmlns="http://www.w3.org/2000/svg">
<path d="M12.4761 3.625C11.8067 3.625 11.1647 3.89092 10.6913 4.36427C10.218 4.83762 9.95204 5.47962 9.95204 6.14904V6.99038H4.06261C3.3932 6.99038 2.7512 7.25631 2.27785 7.72966C1.8045 8.20301 1.53857 8.84501 1.53857 9.51442L1.53857 22.976C1.53857 23.6454 1.8045 24.2874 2.27785 24.7607C2.7512 25.2341 3.3932 25.5 4.06261 25.5H25.9376C26.607 25.5 27.249 25.2341 27.7224 24.7607C28.1957 24.2874 28.4617 23.6454 28.4617 22.976V9.51442C28.4617 8.84501 28.1957 8.20301 27.7224 7.72966C27.249 7.25631 26.607 6.99038 25.9376 6.99038H20.0482V6.14904C20.0482 5.47962 19.7823 4.83762 19.3089 4.36427C18.8356 3.89092 18.1936 3.625 17.5242 3.625H12.4761ZM12.4761 5.30769H17.5242C17.7473 5.30769 17.9613 5.39633 18.1191 5.55412C18.2769 5.7119 18.3655 5.9259 18.3655 6.14904V6.99038H11.6347V6.14904C11.6347 5.9259 11.7234 5.7119 11.8812 5.55412C12.0389 5.39633 12.2529 5.30769 12.4761 5.30769ZM15.6496 16.9418L26.779 13.9752V22.976C26.779 23.1991 26.6903 23.4131 26.5325 23.5709C26.3748 23.7287 26.1608 23.8173 25.9376 23.8173H4.06261C3.83947 23.8173 3.62547 23.7287 3.46769 23.5709C3.30991 23.4131 3.22127 23.1991 3.22127 22.976V13.9736L14.3506 16.9418C14.7762 17.0552 15.224 17.0552 15.6496 16.9418ZM4.06261 8.67308H25.9376C26.1608 8.67308 26.3748 8.76172 26.5325 8.9195C26.6903 9.07728 26.779 9.29128 26.779 9.51442V12.2337L15.2172 15.3163C15.075 15.3543 14.9253 15.3543 14.783 15.3163L3.22127 12.2337V9.51442C3.22127 9.29128 3.30991 9.07728 3.46769 8.9195C3.62547 8.76172 3.83947 8.67308 4.06261 8.67308Z" fill="#007EF2"/>
</svg>
