<svg width="20" height="21" viewBox="0 0 20 21" fill="none" xmlns="http://www.w3.org/2000/svg">
<path d="M18.75 2.3728L13.7456 2.37282V1.1272C13.7456 0.781885 13.4659 0.502197 13.1206 0.502197C12.7753 0.502197 12.4956 0.781885 12.4956 1.1272V2.37251H7.49563V1.1272C7.49563 0.781885 7.21594 0.502197 6.87063 0.502197C6.52531 0.502197 6.24563 0.781885 6.24563 1.1272V2.37251H1.25C0.559687 2.37251 0 2.9322 0 3.62251V19.2475C0 19.9378 0.559687 20.4975 1.25 20.4975H18.75C19.4403 20.4975 20 19.9378 20 19.2475V3.62251C20 2.93249 19.4403 2.3728 18.75 2.3728ZM18.75 19.2475H1.25V3.62251H6.24563V4.2522C6.24563 4.59749 6.52531 4.8772 6.87063 4.8772C7.21594 4.8772 7.49563 4.59749 7.49563 4.2522V3.62282H12.4956V4.25251C12.4956 4.59782 12.7753 4.87751 13.1206 4.87751C13.4659 4.87751 13.7456 4.59782 13.7456 4.25251V3.62282H18.75V19.2475ZM14.375 10.4978H15.625C15.97 10.4978 16.25 10.2178 16.25 9.8728V8.6228C16.25 8.2778 15.97 7.9978 15.625 7.9978H14.375C14.03 7.9978 13.75 8.2778 13.75 8.6228V9.8728C13.75 10.2178 14.03 10.4978 14.375 10.4978ZM14.375 15.4975H15.625C15.97 15.4975 16.25 15.2178 16.25 14.8725V13.6225C16.25 13.2775 15.97 12.9975 15.625 12.9975H14.375C14.03 12.9975 13.75 13.2775 13.75 13.6225V14.8725C13.75 15.2181 14.03 15.4975 14.375 15.4975ZM10.625 12.9975H9.375C9.03 12.9975 8.75 13.2775 8.75 13.6225V14.8725C8.75 15.2178 9.03 15.4975 9.375 15.4975H10.625C10.97 15.4975 11.25 15.2178 11.25 14.8725V13.6225C11.25 13.2778 10.97 12.9975 10.625 12.9975ZM10.625 7.9978H9.375C9.03 7.9978 8.75 8.2778 8.75 8.6228V9.8728C8.75 10.2178 9.03 10.4978 9.375 10.4978H10.625C10.97 10.4978 11.25 10.2178 11.25 9.8728V8.6228C11.25 8.27749 10.97 7.9978 10.625 7.9978ZM5.625 7.9978H4.375C4.03 7.9978 3.75 8.2778 3.75 8.6228V9.8728C3.75 10.2178 4.03 10.4978 4.375 10.4978H5.625C5.97 10.4978 6.25 10.2178 6.25 9.8728V8.6228C6.25 8.27749 5.97 7.9978 5.625 7.9978ZM5.625 12.9975H4.375C4.03 12.9975 3.75 13.2775 3.75 13.6225V14.8725C3.75 15.2178 4.03 15.4975 4.375 15.4975H5.625C5.97 15.4975 6.25 15.2178 6.25 14.8725V13.6225C6.25 13.2778 5.97 12.9975 5.625 12.9975Z" fill="#90A0B7"/>
</svg>
