<svg width="22" height="31" viewBox="0 0 22 31" fill="none" xmlns="http://www.w3.org/2000/svg">
<g clip-path="url(#clip0_298_2343)">
<path d="M21.6902 0C21.9225 0.127265 22.003 0.32282 22 0.595975C21.9881 1.63583 22 2.67568 21.994 3.71243C21.994 4.01973 21.8153 4.21528 21.5651 4.21528C21.3178 4.21528 21.145 4.01662 21.1271 3.71243C21.1242 3.64103 21.1271 3.57274 21.1271 3.50135C21.1271 2.75328 21.1271 2.00831 21.1271 1.26024V0.921898H0.875829V1.3099C0.875829 8.12016 0.875829 14.9304 0.875829 21.7407C0.875829 21.8803 0.875829 22.0262 0.840081 22.1597C0.780501 22.3832 0.619634 22.4856 0.399188 22.467C0.178741 22.4484 0.0446852 22.3149 0.0148951 22.0852C0 21.9859 0.00595802 21.8834 0.00595802 21.7841C0.00297901 14.7504 0.00297901 7.71974 0 0.685992C0 0.397317 0.0268111 0.142786 0.306838 0H21.6902Z" fill="#90A0B7"/>
<path d="M0.87621 30.0751H21.1246C21.1246 29.9354 21.1246 29.7988 21.1246 29.6653C21.1246 21.8338 21.1246 14.0055 21.1246 6.17399C21.1246 6.0343 21.1245 5.88842 21.1573 5.75494C21.2139 5.53145 21.3748 5.42591 21.5923 5.44143C21.8157 5.45695 21.9497 5.58732 21.9825 5.81392C21.9974 5.91325 21.9914 6.01568 21.9914 6.11501C21.9914 14.1762 21.9914 22.2405 21.9914 30.3017C21.9914 30.8914 21.8872 31.0001 21.3092 31.0001C14.4337 31.0001 7.55813 31.0001 0.682574 31.0001C0.0957086 31.0001 -0.00259869 30.8976 -0.00259869 30.2768C-0.00259869 28.3182 -0.00259869 26.3626 -0.00259869 24.404C-0.00259869 24.2922 -0.0055777 24.1805 0.00633835 24.0719C0.0361285 23.8391 0.194016 23.6807 0.396589 23.7056C0.548518 23.7242 0.712364 23.8639 0.816629 23.9943C0.882168 24.0781 0.864294 24.2457 0.864294 24.3729C0.864294 26.1485 0.864294 27.924 0.864294 29.6995C0.864294 29.8174 0.864294 29.9354 0.864294 30.072L0.87621 30.0751Z" fill="#90A0B7"/>
<path d="M19.0184 18.0499H17.088V28.1132H19.0184V27.7748C19.0184 25.6982 19.0184 23.6185 19.0184 21.5419C19.0184 21.4426 19.0095 21.3371 19.0243 21.2408C19.0631 20.9987 19.209 20.8591 19.4384 20.8528C19.6678 20.8435 19.8197 20.9832 19.8763 21.216C19.8972 21.3029 19.8883 21.396 19.8883 21.4861C19.8883 23.7862 19.8883 26.0862 19.8883 28.3832C19.8883 28.9078 19.7572 29.0444 19.2508 29.0444C18.4285 29.0444 17.6063 29.0444 16.7812 29.0444C16.3432 29.0444 16.1973 28.8985 16.1973 28.4515C16.1973 24.8726 16.1973 21.2905 16.1973 17.7116C16.1973 17.277 16.3403 17.1311 16.7573 17.1311C17.6183 17.1311 18.4792 17.1311 19.3431 17.1311C19.7363 17.1311 19.8853 17.2863 19.8883 17.696C19.8883 18.1585 19.8912 18.6241 19.8883 19.0866C19.8883 19.425 19.7304 19.6174 19.4652 19.6236C19.1882 19.6299 19.0214 19.4343 19.0184 19.0804C19.0154 18.7483 19.0184 18.4162 19.0184 18.0499Z" fill="#90A0B7"/>
<path d="M8.61846 9.44239C8.61846 11.3793 7.09618 12.9593 5.2343 12.9562C3.39029 12.95 1.87993 11.37 1.87695 9.4455C1.87695 7.51168 3.39923 5.92862 5.26111 5.93483C7.10512 5.94104 8.61846 7.52099 8.61846 9.4455V9.44239ZM4.81128 6.9095C3.61372 7.04297 2.68427 8.29079 2.75278 9.61001C2.82428 10.9851 3.96822 12.0746 5.31175 12.0467C6.47953 12.0218 7.63836 10.9789 7.66517 9.89558C6.94127 9.89558 6.21737 9.89558 5.49645 9.89558C4.90363 9.89558 4.81128 9.79936 4.81128 9.16924C4.81128 8.42427 4.81128 7.6824 4.81128 6.9095ZM5.70498 6.9126V8.96437H7.67709C7.57878 7.98039 6.64039 7.00262 5.70498 6.9126Z" fill="#90A0B7"/>
<path d="M10.9692 4.82991C9.48859 4.82991 8.00802 4.82991 6.52745 4.82991C5.99421 4.82991 5.87505 4.70575 5.87207 4.15944C5.87207 3.65658 5.87207 3.15062 5.87207 2.64777C5.87207 2.07042 5.98229 1.95247 6.53043 1.95247C9.38433 1.95247 12.2382 1.95247 15.0921 1.95247C15.2768 1.95247 15.4615 1.94626 15.6432 1.95247C15.9679 1.96799 16.1169 2.12629 16.1228 2.46774C16.1288 3.02336 16.1228 3.57588 16.1228 4.1315C16.1228 4.70575 16.0096 4.8268 15.4645 4.8268C13.966 4.8268 12.4646 4.8268 10.9662 4.8268L10.9692 4.82991ZM6.7628 3.9018H15.2351V2.88057H6.7628V3.9018Z" fill="#90A0B7"/>
<path d="M15.1874 24.3078C15.1874 25.6798 15.1874 27.0487 15.1874 28.4206C15.1874 28.908 15.0533 29.0446 14.5797 29.0477C13.7575 29.0477 12.9352 29.0477 12.113 29.0477C11.6424 29.0477 11.5083 28.9111 11.5083 28.4206C11.5083 25.6798 11.5083 22.9358 11.5083 20.195C11.5083 19.7076 11.6424 19.571 12.116 19.571C12.9472 19.571 13.7813 19.571 14.6124 19.571C15.0444 19.571 15.1874 19.72 15.1874 20.167C15.1874 21.5483 15.1874 22.9296 15.1874 24.3109V24.3078ZM14.3056 20.496H12.402V28.1165H14.3056V20.496Z" fill="#90A0B7"/>
<path d="M6.81006 26.1391C6.81006 25.3631 6.81006 24.5871 6.81006 23.8111C6.81006 23.3983 6.95603 23.2493 7.35224 23.2493C8.21317 23.2493 9.07411 23.2493 9.93504 23.2493C10.3372 23.2493 10.4862 23.3952 10.4862 23.8049C10.4862 25.3693 10.4862 26.9307 10.4862 28.4951C10.4862 28.8893 10.3342 29.0476 9.95887 29.0507C9.089 29.0569 8.21615 29.0569 7.34628 29.0507C6.95305 29.0507 6.81006 28.8893 6.81006 28.4734C6.81006 27.6974 6.81006 26.9213 6.81006 26.1453V26.1391ZM7.69482 28.1133H9.59841V24.1712H7.69482V28.1133Z" fill="#90A0B7"/>
<path d="M15.3275 5.9349C16.7127 5.9349 18.095 5.9349 19.4802 5.9349C19.5577 5.9349 19.6351 5.92869 19.7126 5.938C19.9568 5.96904 20.0998 6.11493 20.1177 6.36946C20.1356 6.60848 19.9598 6.80713 19.7155 6.83817C19.6381 6.84749 19.5606 6.84128 19.4832 6.84128C16.7246 6.84128 13.966 6.84128 11.2075 6.84128C11.1122 6.84128 11.0109 6.85059 10.9185 6.82886C10.6951 6.77299 10.567 6.61779 10.573 6.37257C10.5789 6.12735 10.7159 5.98146 10.9423 5.94111C11.0258 5.92559 11.1151 5.9349 11.2045 5.9349C12.5778 5.9349 13.9541 5.9349 15.3275 5.9349Z" fill="#90A0B7"/>
<path d="M15.3334 10.9139C13.9691 10.9139 12.6047 10.9139 11.2403 10.9139C11.145 10.9139 11.0466 10.917 10.9513 10.9045C10.7309 10.8766 10.5998 10.74 10.5789 10.5103C10.5551 10.2682 10.6624 10.0975 10.8917 10.0354C11.002 10.0044 11.1211 10.0075 11.2373 10.0075C13.975 10.0075 16.7127 10.0075 19.4534 10.0075C19.5607 10.0075 19.6679 10.0044 19.7722 10.0261C19.9986 10.0758 20.1326 10.2341 20.1237 10.4762C20.1148 10.7307 19.9718 10.8828 19.7245 10.9076C19.6292 10.917 19.5309 10.9139 19.4355 10.9139C18.0712 10.9139 16.7068 10.9139 15.3424 10.9139H15.3334Z" fill="#90A0B7"/>
<path d="M15.3598 7.97729C16.763 7.97729 18.1661 7.97729 19.5692 7.97729C19.8135 7.97729 20.0131 8.03317 20.1024 8.29391C20.1829 8.52981 20.0458 8.79055 19.7986 8.85574C19.6883 8.88367 19.5692 8.88678 19.453 8.88678C16.7153 8.88678 13.9776 8.88678 11.2369 8.88678C11.1892 8.88678 11.1416 8.88678 11.0909 8.88678C10.7543 8.87436 10.5636 8.69743 10.5726 8.41186C10.5815 8.1356 10.7602 7.9804 11.0909 7.9804C12.5119 7.9804 13.9359 7.9804 15.3569 7.9804L15.3598 7.97729Z" fill="#90A0B7"/>
<path d="M3.96807 29.0475C3.53314 29.0475 3.0982 29.0506 2.66029 29.0475C2.26706 29.0444 2.11215 28.883 2.10917 28.4795C2.10619 27.8959 2.10619 27.3093 2.10917 26.7257C2.10917 26.3532 2.26408 26.1794 2.61858 26.1763C3.5093 26.167 4.40003 26.1701 5.29075 26.1763C5.63334 26.1763 5.79123 26.3439 5.79718 26.6978C5.80612 27.3124 5.80612 27.927 5.79718 28.5447C5.79123 28.8799 5.63036 29.0413 5.30267 29.0475C4.8588 29.0568 4.41194 29.0475 3.96807 29.0475ZM4.90646 28.1225V27.0982H3.00287V28.1225H4.90646Z" fill="#90A0B7"/>
<path d="M7.03955 17.9911C5.79134 17.9911 4.54016 17.9911 3.29195 17.9911C3.19662 17.9911 3.09534 17.9973 3.00299 17.9817C2.78552 17.9414 2.62763 17.7831 2.65742 17.5689C2.67827 17.4106 2.81531 17.2492 2.93745 17.1312C3.00001 17.0723 3.14002 17.0878 3.24429 17.0878C5.77049 17.0878 8.29967 17.0878 10.8259 17.0878C10.9033 17.0878 10.9838 17.0816 11.0582 17.0971C11.2966 17.1499 11.4395 17.302 11.4247 17.5627C11.4127 17.8203 11.2668 17.9724 11.0195 17.988C10.8259 18.0004 10.6322 17.9942 10.4386 17.9942C9.30658 17.9942 8.17157 17.9942 7.03955 17.9942V17.9911Z" fill="#90A0B7"/>
<path d="M7.03968 15.0483C8.28789 15.0483 9.53609 15.0483 10.7873 15.0483C10.8945 15.0483 11.0018 15.0452 11.106 15.0669C11.3116 15.1135 11.4546 15.2718 11.4158 15.4735C11.3861 15.6349 11.2609 15.7994 11.1328 15.9081C11.0524 15.9764 10.8915 15.9515 10.7664 15.9515C8.27895 15.9515 5.79147 15.9515 3.30102 15.9515C2.86013 15.9515 2.64266 15.7994 2.63968 15.4984C2.6367 15.1942 2.85119 15.0452 3.29208 15.0452C4.54029 15.0452 5.78849 15.0452 7.03968 15.0452V15.0483Z" fill="#90A0B7"/>
<path d="M13.5847 12.9564C12.7625 12.9564 11.9373 12.9564 11.1151 12.9564C10.7696 12.9564 10.5759 12.7981 10.57 12.5125C10.564 12.2176 10.7606 12.0469 11.1241 12.0469C12.7595 12.0469 14.398 12.0469 16.0335 12.0469C16.3999 12.0469 16.5935 12.2114 16.5935 12.5032C16.5935 12.7949 16.3969 12.9533 16.0275 12.9533C15.2142 12.9533 14.401 12.9533 13.5877 12.9533L13.5847 12.9564Z" fill="#90A0B7"/>
<path d="M5.27616 19.127C5.98218 19.127 6.68821 19.127 7.39423 19.127C7.71001 19.127 7.90662 19.3008 7.91258 19.5677C7.91556 19.8347 7.71895 20.0302 7.40913 20.0302C5.98516 20.0333 4.56417 20.0333 3.1402 20.0302C2.83039 20.0302 2.63377 19.8347 2.63675 19.5677C2.63973 19.3008 2.83635 19.127 3.1551 19.127C3.86113 19.127 4.56715 19.127 5.27318 19.127H5.27616Z" fill="#90A0B7"/>
</g>
<defs>
<clipPath id="clip0_298_2343">
<rect width="22" height="31" fill="white"/>
</clipPath>
</defs>
</svg>
