<svg width="20" height="21" viewBox="0 0 20 21" fill="none" xmlns="http://www.w3.org/2000/svg">
<g clip-path="url(#clip0_298_2318)">
<path d="M6.81106 6.61106C6.81106 4.84904 8.23793 3.42217 9.99994 3.42217C11.762 3.42217 13.1888 4.84904 13.1888 6.61106C13.1888 8.37307 11.762 9.79995 9.99994 9.79995C8.23793 9.79995 6.81106 8.37307 6.81106 6.61106ZM2.92217 15.3611C2.92217 14.9716 3.11169 14.5787 3.54717 14.1768C3.9874 13.7705 4.63067 13.404 5.39793 13.0966C6.93358 12.4814 8.78953 12.1722 9.99994 12.1722C11.2104 12.1722 13.0663 12.4814 14.602 13.0966C15.3692 13.404 16.0125 13.7705 16.4527 14.1768C16.8882 14.5787 17.0777 14.9716 17.0777 15.3611V17.5777H2.92217V15.3611Z" stroke="#90A0B7" stroke-width="1.4"/>
</g>
<defs>
<clipPath id="clip0_298_2318">
<rect width="20" height="20" fill="white" transform="translate(0 0.5)"/>
</clipPath>
</defs>
</svg>
